<svg width="621" height="621" viewBox="0 0 621 621" fill="none" xmlns="http://www.w3.org/2000/svg">
<path d="M513.344 307.78C400.57 242.662 218.319 242.662 106.266 307.78C-5.78767 372.898 -5.17909 478.468 107.595 543.574C220.368 608.679 402.632 608.692 514.672 543.574C626.713 478.456 626.13 372.898 513.344 307.78Z" fill="#F5F5F5"/>
<path d="M554.069 422.28C562.39 417.486 575.828 417.486 584.1 422.28C592.372 427.074 592.322 434.861 584.001 439.668C575.679 444.475 562.241 444.475 553.969 439.668C545.698 434.861 545.747 427.111 554.069 422.28Z" fill="#E0E0E0"/>
<path d="M317.48 429.297L302.092 408.382C300.539 406.27 298.549 404.518 296.258 403.245C293.967 401.972 291.428 401.208 288.815 401.005L266.136 399.266L230.118 377.369L243.593 369.582C243.77 369.47 243.916 369.315 244.017 369.131C244.118 368.948 244.171 368.742 244.171 368.532C244.171 368.323 244.118 368.117 244.017 367.933C243.916 367.75 243.77 367.595 243.593 367.483L237.992 364.291C236.888 363.659 235.638 363.327 234.365 363.327C233.093 363.327 231.843 363.659 230.739 364.291L98.652 440.662C98.475 440.774 98.3292 440.929 98.2282 441.112C98.1272 441.296 98.0742 441.502 98.0742 441.711C98.0742 441.921 98.1272 442.127 98.2282 442.31C98.3292 442.494 98.475 442.649 98.652 442.761L104.117 445.915C105.225 446.556 106.482 446.894 107.762 446.894C109.042 446.894 110.299 446.556 111.407 445.915L168.738 412.804L204.272 433.185L208.917 446.263C210.347 450.278 212.984 453.752 216.466 456.209C219.948 458.666 224.105 459.986 228.367 459.987H261.528L284.033 472.978L338.408 441.37L317.48 429.297Z" fill="#E0E0E0"/>
<path d="M519.802 409.997C483.858 389.255 425.77 389.255 390.063 409.997C358.503 428.329 355.001 456.721 379.406 477.412C359.708 476.17 339.314 479.896 324.274 488.677C297.881 504.016 298.018 528.881 324.584 544.22C351.151 559.558 394.136 559.546 420.467 544.22C441.456 532.011 445.642 513.778 433.11 499.11C463.365 503.494 496.663 498.837 520.237 485.15C555.944 464.409 555.758 430.763 519.802 409.997Z" fill="#E0E0E0"/>
<path d="M102.564 467.278C93.1003 461.813 77.7989 461.813 68.3969 467.278C58.995 472.743 59.0447 481.61 68.5087 487.075C77.9727 492.54 93.2742 492.54 102.676 487.075C112.078 481.61 112.041 472.743 102.564 467.278Z" fill="#E0E0E0"/>
<path d="M194.708 39.6695L201.353 35.869L201.763 181.108L201.751 181.121L148.195 211.699L148.171 204.098L147.773 66.4594L194.708 39.6695Z" fill="#F0F0F0"/>
<path opacity="0.1" d="M195.106 177.296L194.708 39.6695L201.353 35.869L201.763 181.108L201.751 181.121L195.081 177.308L195.106 177.296Z" fill="black"/>
<path opacity="0.2" d="M148.171 204.098L195.081 177.308L201.751 181.121L148.195 211.699L148.171 204.098Z" fill="black"/>
<path d="M121.418 81.5125L128.063 77.7119L128.473 222.951L128.46 222.964L74.9051 253.542L74.8802 245.941L74.4828 108.302L121.418 81.5125Z" fill="#F0F0F0"/>
<path opacity="0.1" d="M121.815 219.138L121.418 81.5125L128.063 77.7119L128.473 222.951L128.46 222.964L121.791 219.151L121.815 219.138Z" fill="black"/>
<path opacity="0.2" d="M74.8802 245.941L121.791 219.151L128.46 222.964L74.9051 253.542L74.8802 245.941Z" fill="black"/>
<path d="M349.561 121.182C349.151 120.747 348.754 120.3 348.319 119.841L348.058 119.542C347.4 118.785 346.816 118.015 346.145 117.22L345.947 116.959C345.45 116.326 344.978 115.717 344.506 115.009L344.295 114.724C343.848 114.078 343.413 113.482 342.991 112.761C342.879 112.6 342.78 112.438 342.68 112.277C342.333 111.73 341.997 111.184 341.674 110.625C341.597 110.514 341.526 110.397 341.463 110.277C341.09 109.644 340.73 109.035 340.383 108.352L340.134 107.855C339.861 107.346 339.6 106.824 339.339 106.303L339.091 105.781C338.768 105.123 338.47 104.465 338.172 103.794L338.06 103.508C337.799 102.9 337.551 102.266 337.315 101.695L337.104 101.148C336.83 100.428 336.57 99.7078 336.334 98.9874C336.334 98.9874 336.334 98.8756 336.272 98.8135C336.023 98.0683 335.8 97.3231 335.588 96.5779L335.477 96.1556C335.228 95.2862 335.017 94.4168 334.831 93.5599C334.831 93.3611 334.756 93.1748 334.707 92.9885L334.52 91.9701C334.52 91.759 334.433 91.5478 334.409 91.3243C334.409 90.9765 334.297 90.6287 334.247 90.281C334.197 89.9332 334.185 89.8711 334.16 89.66C334.061 88.9148 333.999 88.1696 333.937 87.4368C333.937 87.2753 333.937 87.1139 333.937 86.9648C333.937 86.2072 333.862 85.4496 333.862 84.7044C333.862 84.1952 333.862 83.686 333.862 83.2016V82.6427C333.862 82.3446 333.862 82.0341 333.937 81.7484C334.011 81.4628 333.937 81.3758 333.999 81.1895C334.061 81.0032 333.999 80.6182 334.098 80.345C334.197 80.0717 334.173 79.96 334.197 79.7737C334.222 79.5874 334.284 79.2644 334.334 79.016C334.384 78.7676 334.421 78.631 334.458 78.4323C334.495 78.2336 334.57 77.9728 334.62 77.7368C334.669 77.5008 334.731 77.3642 334.781 77.1779C334.831 76.9916 334.905 76.7432 334.98 76.532L335.166 75.9856C335.241 75.7868 335.303 75.5757 335.39 75.377C335.477 75.1783 335.539 75.0416 335.601 74.8678C335.663 74.6939 335.762 74.4827 335.849 74.2964C335.936 74.1101 336.011 73.9735 336.098 73.8121C336.185 73.6506 336.272 73.4519 336.371 73.278L336.644 72.8309L336.942 72.3217L337.24 71.8994C337.352 71.7503 337.451 71.5889 337.576 71.4398C337.7 71.2908 337.787 71.179 337.899 71.0424C338.01 70.9058 338.122 70.7567 338.246 70.6201C338.371 70.4835 338.482 70.3717 338.594 70.2475L338.967 69.8625L339.339 69.5272L339.737 69.1794L340.134 68.8813L340.556 68.5708L340.966 68.2976C342.244 67.4991 343.653 66.9316 345.127 66.6209C342.333 69.7631 340.693 74.5448 340.668 80.7052C340.668 81.4504 340.668 82.208 340.743 82.9656C340.743 83.1271 340.743 83.2761 340.743 83.4376C340.743 84.1703 340.867 84.9155 340.966 85.6607C340.966 85.8719 341.028 86.083 341.053 86.2817C341.078 86.4805 341.153 86.9773 341.215 87.325C341.277 87.6728 341.289 87.797 341.339 88.033L341.525 89.0514C341.525 89.2377 341.612 89.424 341.649 89.6227C341.836 90.4797 342.047 91.3491 342.283 92.2185C342.332 92.3612 342.373 92.5063 342.407 92.6532C342.618 93.386 342.842 94.1312 343.09 94.8764C343.09 94.8764 343.09 95.0006 343.152 95.0503C343.388 95.783 343.649 96.5034 343.922 97.2113C343.997 97.3976 344.059 97.5839 344.133 97.7578C344.369 98.3664 344.618 98.9998 344.879 99.5711L344.99 99.8568C345.288 100.527 345.587 101.186 345.909 101.844C345.984 102.018 346.071 102.192 346.158 102.366C346.419 102.887 346.68 103.409 346.953 103.931L347.201 104.415C347.549 105.061 347.909 105.657 348.282 106.34C348.344 106.464 348.418 106.576 348.493 106.7C348.816 107.247 349.151 107.806 349.499 108.352L349.797 108.824C350.232 109.482 350.666 110.141 351.113 110.786L351.325 111.072C351.797 111.743 352.269 112.389 352.765 113.034L352.964 113.295C353.585 114.09 354.206 114.86 354.877 115.618L355.125 115.916L356.367 117.27L356.442 117.344C356.876 117.804 357.323 118.263 357.771 118.698C357.858 118.797 357.957 118.884 358.056 118.984C358.64 119.543 359.224 120.101 359.832 120.635L359.994 120.785C360.615 121.331 361.236 121.84 361.882 122.349L362.254 122.635C362.875 123.119 363.496 123.579 364.167 124.026L364.502 124.25C365.185 124.697 365.868 125.132 366.552 125.492C367.235 125.852 367.657 126.1 368.203 126.386L368.663 126.609L369.905 127.181L370.34 127.367L371.482 127.802L371.768 127.901C372.24 128.063 372.712 128.212 373.171 128.336L373.991 128.535L374.364 128.634C374.761 128.721 375.146 128.783 375.531 128.845C376.107 128.939 376.687 128.997 377.27 129.019H377.618C378.127 129.019 378.624 129.019 379.121 129.019H379.369C379.764 128.993 380.158 128.948 380.549 128.882H380.909L381.282 128.795C380.361 129.843 379.274 130.733 378.065 131.428L377.941 131.491H377.854C377.543 131.664 377.22 131.813 376.897 131.963L376.562 132.099C376.223 132.24 375.875 132.364 375.519 132.472H375.332C374.923 132.584 374.5 132.683 374.09 132.757H373.755C373.37 132.757 372.997 132.857 372.6 132.894H372.302C371.818 132.894 371.321 132.894 370.824 132.894H370.501H369.681L368.737 132.782L368.141 132.67L367.57 132.559L367.222 132.472H367.123L366.39 132.298C365.931 132.161 365.471 132.025 365.011 131.863L364.726 131.764L363.571 131.329L363.161 131.155C362.747 130.981 362.333 130.795 361.919 130.596L361.646 130.46C361.576 130.434 361.509 130.401 361.447 130.36C360.9 130.087 360.354 129.801 359.795 129.479C359.236 129.156 358.429 128.646 357.758 128.236H357.659L357.41 128.075C356.765 127.628 356.168 127.168 355.498 126.684L355.262 126.498L355.125 126.398C354.492 125.889 353.883 125.367 353.237 124.833C353.201 124.804 353.168 124.77 353.138 124.734H353.076C352.467 124.212 351.834 123.654 351.3 123.095L351.014 122.809C350.567 122.374 350.12 121.915 349.685 121.455L349.561 121.182Z" fill="#EBEBEB"/>
<path d="M380.921 107.011V108.613L385.43 111.209V109.606L380.921 107.011Z" fill="white"/>
<path d="M344.469 73.3277L343.773 74.2964L347.673 79.1526L348.369 78.1715L344.469 73.3277Z" fill="white"/>
<path d="M389.243 112.612C389.243 129.093 377.531 135.738 363.161 127.516C348.791 119.294 337.265 99.1116 337.302 82.6302C337.34 66.1489 349.014 59.5042 363.384 67.7262C377.754 75.9483 389.293 96.1308 389.243 112.612ZM351.486 96.7021C351.595 97.0509 351.824 97.3499 352.132 97.5467C352.214 97.5979 352.308 97.6278 352.405 97.6336L363.434 98.503C363.511 98.5252 363.592 98.5215 363.667 98.4922C363.741 98.463 363.803 98.41 363.844 98.3415L371.06 86.1078C371.126 85.8921 371.132 85.6626 371.077 85.4437C371.022 85.2249 370.909 85.0252 370.749 84.8658C370.661 84.7625 370.556 84.6744 370.439 84.605C370.191 84.4684 369.942 84.4808 369.818 84.692L362.726 96.7269L351.859 95.87C351.511 95.87 351.337 96.2177 351.486 96.7145M372.699 85.9091L374.96 82.7296L373.718 81.2392L371.544 84.456L372.786 85.9464M373.718 126.162L374.96 126.063L372.6 120.226L371.358 120.325L373.594 126.113M344.394 100.167L348.307 99.8319L347.623 98.0435L343.699 98.3788L344.394 100.167ZM382.077 121.927L382.772 120.946L378.872 116.09L378.177 117.071L382.077 121.927ZM344.469 73.278L343.773 74.2467L347.673 79.103L348.369 78.1218L344.469 73.278ZM378.934 97.1989L382.847 96.8636L382.151 95.0875L378.239 95.4104L378.934 97.1989ZM352.852 69.1297L351.61 69.2291L353.846 75.0168L355.088 74.9174L352.84 69.1297M352.728 114.016L355.001 110.824L353.759 109.346L351.486 112.525L352.728 114.016ZM345.624 88.182V86.6295L341.115 84.0337V85.6235L345.624 88.2317M385.43 109.619L380.921 107.011V108.613L385.43 111.209V109.619ZM362.515 122.685L363.894 123.48V118.3L362.515 117.493V122.685ZM364.043 72.5576L362.664 71.7627V77.004L364.043 77.8113V72.6197" fill="#E0E0E0"/>
<path d="M362.652 71.7628L362.639 76.9419L364.018 77.7492L364.043 72.5576L362.652 71.7628Z" fill="white"/>
<path d="M373.817 81.2268L371.544 84.4063L372.749 85.8967L375.01 82.7172L373.817 81.2268Z" fill="white"/>
<path d="M382.151 95.0875L378.239 95.4104L378.934 97.1989L382.847 96.8636L382.151 95.0875Z" fill="white"/>
<path d="M378.872 116.09L378.177 117.071L382.076 121.927L382.772 120.946L378.872 116.09Z" fill="white"/>
<path d="M372.65 120.226L371.445 120.325L373.681 126.113L374.885 126.013L372.65 120.226Z" fill="white"/>
<path d="M362.527 117.493L362.515 122.685L363.894 123.48L363.906 118.3L362.527 117.493Z" fill="white"/>
<path d="M353.809 109.346L351.536 112.525L352.728 114.016L355.001 110.824L353.809 109.346Z" fill="white"/>
<path d="M347.611 98.0435L343.699 98.3788L344.394 100.167L348.307 99.8319L347.611 98.0435Z" fill="white"/>
<path d="M341.115 84.0337V85.6235L345.624 88.2317V86.6295L341.115 84.0337Z" fill="white"/>
<path d="M352.852 69.1297L351.66 69.2291L353.895 75.0168L355.1 74.9174L352.852 69.1297Z" fill="white"/>
<path d="M363.273 96.876C363.19 96.8247 363.096 96.7949 362.999 96.7891H362.776L351.908 95.9321C351.561 95.9321 351.387 96.2798 351.536 96.7766C351.645 97.1254 351.874 97.4245 352.182 97.6212C352.264 97.6724 352.358 97.7023 352.455 97.7081L363.484 98.5775C363.831 98.5775 363.993 98.2422 363.844 97.7454C363.764 97.3964 363.561 97.0878 363.273 96.876Z" fill="white"/>
<path d="M370.489 84.5926C370.24 84.456 369.992 84.4684 369.868 84.6796L362.776 96.7145H362.999C363.096 96.7203 363.19 96.7502 363.273 96.8015C363.58 96.9963 363.805 97.2967 363.906 97.646C364.055 98.1428 363.906 98.5154 363.546 98.4782C363.622 98.5004 363.704 98.4966 363.778 98.4674C363.853 98.4382 363.915 98.3852 363.956 98.3167L371.172 86.083C371.238 85.8673 371.244 85.6377 371.189 85.4189C371.134 85.2001 371.021 85.0003 370.861 84.841C370.753 84.7363 370.627 84.6522 370.489 84.5926Z" fill="#F5F5F5"/>
<path d="M381.058 132.894L381.468 132.571C381.622 132.453 381.767 132.324 381.903 132.186C382.039 132.074 382.176 131.962 382.3 131.838L382.71 131.416L383.083 131.019C383.22 130.874 383.349 130.72 383.468 130.559C383.579 130.422 383.703 130.286 383.815 130.137C383.927 129.988 384.051 129.801 384.163 129.64C384.275 129.478 384.387 129.342 384.486 129.18C384.585 129.019 384.71 128.82 384.809 128.634C384.908 128.448 385.02 128.311 385.107 128.15C385.194 127.988 385.306 127.765 385.405 127.566L385.678 127.044L385.939 126.423C386.014 126.237 386.101 126.063 386.175 125.877C386.25 125.69 386.337 125.43 386.411 125.206C386.486 124.982 386.56 124.821 386.622 124.635C386.684 124.448 386.759 124.163 386.821 123.927C386.883 123.691 386.945 123.529 386.995 123.318C387.044 123.107 387.119 122.834 387.169 122.585L387.318 121.94C387.318 121.679 387.405 121.405 387.454 121.145L387.566 120.499L387.678 119.58L387.752 118.996L387.827 117.94V117.431C387.827 116.901 387.827 116.355 387.827 115.792C387.827 114.984 387.827 114.177 387.752 113.308C387.747 113.254 387.747 113.2 387.752 113.146C387.69 112.24 387.616 111.32 387.492 110.389V110.078L387.268 108.576C387.268 108.327 387.181 108.079 387.131 107.818C387.057 107.458 386.995 107.085 386.92 106.713V106.539C386.483 104.463 385.928 102.415 385.256 100.403C384.359 97.6964 383.28 95.0532 382.027 92.4917L381.952 92.3303C381.232 90.8771 380.474 89.4364 379.655 88.0329L379.431 87.6479C379.058 87.0145 378.673 86.4059 378.288 85.7849L378.015 85.3502C376.947 83.6984 375.829 82.1086 374.637 80.5809C373.469 79.0823 372.227 77.6457 370.911 76.2712C370.427 75.7496 369.93 75.2528 369.433 74.7435L369.185 74.52C368.539 73.8741 367.88 73.278 367.197 72.657H367.123C366.427 72.036 365.707 71.415 364.987 70.8685L364.602 70.558C363.918 70.0364 363.235 69.5396 362.527 69.0676L362.453 69.0055C362.006 68.7074 361.559 68.4093 361.112 68.1361C360.664 67.8629 360.341 67.6517 359.944 67.4282C359.348 67.0804 358.702 66.7699 358.168 66.4718C356.472 65.6053 354.696 64.9065 352.865 64.3853L352.38 64.2611L351.61 64.0748L351.076 63.9754L350.356 63.8512H350.294H349.772L348.853 63.7518H348.778H348.493C347.827 63.7146 347.159 63.7146 346.493 63.7518H346.208C345.785 63.7518 345.363 63.8264 344.966 63.8885C344.378 63.9731 343.797 64.0976 343.227 64.2611H343.127H343.016C342.631 64.3853 342.258 64.5219 341.885 64.6709L341.711 64.7454C341.202 64.969 340.693 65.205 340.209 65.4782L347.089 61.479L347.238 61.392L347.425 61.2927C347.76 61.1188 348.108 60.9449 348.456 60.7959C348.519 60.7578 348.586 60.7246 348.654 60.6965H348.816C349.23 60.5309 349.644 60.3819 350.058 60.2494C350.519 60.1169 350.988 60.0091 351.461 59.9265H351.623H351.846C352.257 59.8533 352.672 59.8035 353.088 59.7774H353.299H353.361C353.903 59.7463 354.447 59.7463 354.988 59.7774H355.15H355.684H356.057C356.429 59.7774 356.814 59.852 357.199 59.9141L358.441 60.15L358.839 60.2494L359.646 60.4481H359.72C360.217 60.5847 360.727 60.7338 361.236 60.9077L361.546 61.0319C361.956 61.1685 362.366 61.3299 362.788 61.5038L362.962 61.5659L363.273 61.7025C363.707 61.8888 364.154 62.1 364.602 62.3111L365.111 62.5595C365.695 62.8576 366.353 63.1681 366.887 63.5159C367.421 63.8636 368.365 64.4101 369.098 64.9069L369.47 65.1553C370.166 65.6273 370.861 66.1241 371.544 66.6457L371.929 66.9562C372.625 67.5027 373.308 68.0616 373.979 68.6577C374.042 68.7049 374.101 68.7591 374.153 68.8192C374.811 69.3905 375.395 69.9867 376.078 70.6077L376.264 70.7816L376.388 70.9058C376.872 71.3777 377.344 71.8621 377.816 72.3713L377.891 72.4458C378.338 72.9302 378.773 73.4146 379.207 73.9114L379.332 74.048L379.481 74.2343C380.189 75.054 380.884 75.8862 381.555 76.7183V76.7928C381.608 76.8561 381.658 76.9224 381.704 76.9916C382.242 77.6871 382.764 78.395 383.269 79.1154L383.43 79.3265C383.456 79.361 383.476 79.3986 383.492 79.4383C383.989 80.1214 384.461 80.8294 384.921 81.5497C384.959 81.6206 385.005 81.6872 385.057 81.7484L385.244 82.0714C385.616 82.6551 385.976 83.3134 386.337 83.8474L386.498 84.1207C386.502 84.1578 386.502 84.1953 386.498 84.2324C386.908 84.9279 387.293 85.6235 387.665 86.319L387.752 86.4929L387.939 86.8406L388.796 88.5297C388.796 88.6415 388.907 88.7657 388.97 88.8775C389.032 88.9893 389.032 89.0266 389.069 89.0887C389.404 89.809 389.74 90.5294 390.05 91.2497C390.074 91.3262 390.103 91.401 390.137 91.4733C390.423 92.1315 390.684 92.7898 390.944 93.4481C390.944 93.5598 391.031 93.6592 391.081 93.771C391.131 93.8828 391.143 93.9449 391.168 94.0442C391.466 94.8143 391.752 95.5967 392.012 96.3792V96.5158C392.286 97.3438 392.534 98.1718 392.758 98.9998L392.845 99.3103C392.85 99.364 392.85 99.4181 392.845 99.4718C393.093 100.416 393.329 101.347 393.528 102.279C393.533 102.361 393.533 102.444 393.528 102.527L393.602 102.9C393.677 103.26 393.739 103.632 393.813 103.993C393.888 104.353 393.9 104.502 393.95 104.763C394 105.024 394.062 105.52 394.111 105.893C394.111 106.067 394.174 106.241 394.198 106.427C394.193 106.472 394.193 106.518 394.198 106.564C394.298 107.371 394.372 108.178 394.434 108.973C394.434 109.147 394.434 109.308 394.434 109.482C394.434 110.302 394.521 111.109 394.521 111.966C394.521 120.822 391.367 127.044 386.337 129.975L379.456 133.975L379.891 133.689C380.04 133.602 380.189 133.515 380.325 133.416L381.058 132.894Z" fill="#EBEBEB"/>
<path d="M331.763 83.4127C331.763 101.223 344.183 122.921 359.745 131.851C367.769 136.483 375.022 136.819 380.151 133.527C380.3 133.44 380.449 133.354 380.586 133.254L381.058 132.906L381.468 132.583C381.622 132.465 381.767 132.337 381.903 132.198C382.039 132.087 382.176 131.975 382.3 131.851L382.71 131.428L383.083 131.031C383.22 130.886 383.349 130.733 383.468 130.571C383.579 130.435 383.704 130.298 383.815 130.149C383.927 130 384.051 129.814 384.163 129.652C384.275 129.491 384.387 129.354 384.486 129.193C384.585 129.031 384.71 128.833 384.809 128.646C384.908 128.46 385.02 128.323 385.107 128.162C385.194 128.001 385.306 127.777 385.405 127.578L385.678 127.057L385.939 126.436C386.014 126.249 386.101 126.075 386.175 125.889C386.25 125.703 386.337 125.442 386.411 125.218C386.486 124.995 386.56 124.833 386.622 124.647C386.684 124.461 386.759 124.175 386.821 123.939C386.883 123.703 386.945 123.542 386.995 123.331C387.044 123.119 387.119 122.846 387.169 122.598L387.318 121.952C387.318 121.691 387.405 121.418 387.454 121.157L387.566 120.511L387.678 119.592L387.752 119.008L387.827 117.953V117.444C387.827 116.914 387.827 116.367 387.827 115.804C387.827 114.997 387.827 114.189 387.752 113.32V113.159C387.69 112.252 387.616 111.333 387.492 110.401V110.091L387.268 108.588C387.268 108.34 387.181 108.091 387.131 107.83C387.082 107.57 386.995 107.098 386.92 106.725V106.551C386.483 104.476 385.928 102.427 385.256 100.416C384.359 97.7088 383.28 95.0656 382.027 92.5042L381.952 92.3427C381.232 90.8895 380.474 89.4488 379.655 88.0454L379.431 87.6604C379.058 87.0269 378.673 86.4184 378.288 85.7974L378.015 85.3627C376.947 83.7108 375.829 82.121 374.637 80.5934C373.469 79.0947 372.227 77.6581 370.911 76.2836C370.427 75.762 369.93 75.2652 369.433 74.756L369.185 74.5324C368.539 73.8866 367.88 73.2904 367.197 72.6694H367.123C366.427 72.0484 365.707 71.4274 364.987 70.8809C364.849 70.7844 364.716 70.6807 364.589 70.5704C363.906 70.0488 363.223 69.552 362.515 69.08L362.44 69.0179C361.993 68.7199 361.546 68.4218 361.099 68.1485C360.652 67.8753 360.329 67.6642 359.932 67.4406C359.335 67.0928 358.69 66.7823 358.156 66.4843C356.46 65.6178 354.684 64.9189 352.852 64.3977L352.343 64.2735L351.573 64.0872C351.387 64.0872 351.2 64.0127 351.014 63.9754L350.294 63.8512L349.71 63.7767L348.791 63.6773H348.431C347.765 63.6401 347.097 63.6401 346.431 63.6773H346.108C345.686 63.6773 345.264 63.7519 344.866 63.814C344.279 63.8986 343.698 64.023 343.127 64.1866H342.916C342.531 64.3108 342.159 64.4474 341.786 64.5964L341.587 64.6709C341.078 64.8945 340.569 65.1305 340.084 65.4037C334.93 68.31 331.788 74.52 331.763 83.4127ZM349.635 121.269L349.561 121.182C349.151 120.747 348.754 120.3 348.319 119.841L348.058 119.542C347.4 118.785 346.816 118.015 346.145 117.22L345.947 116.959C345.45 116.313 344.978 115.717 344.506 114.997L344.295 114.711C343.848 114.065 343.413 113.469 342.991 112.749C342.879 112.587 342.78 112.426 342.68 112.264C342.332 111.73 341.997 111.171 341.674 110.613C341.597 110.501 341.526 110.385 341.463 110.265C341.09 109.631 340.73 109.023 340.383 108.34L340.134 107.843C339.861 107.334 339.6 106.812 339.339 106.29L339.091 105.769C338.768 105.11 338.47 104.452 338.172 103.782L338.06 103.496C337.799 102.887 337.551 102.254 337.315 101.683L337.104 101.136C336.83 100.416 336.57 99.6953 336.334 98.975C336.334 98.975 336.334 98.8632 336.272 98.8011C336.023 98.0559 335.8 97.3107 335.588 96.5655L335.477 96.1432C335.228 95.2738 335.017 94.4044 334.831 93.5474C334.831 93.3487 334.756 93.1624 334.707 92.9761L334.52 91.9577C334.52 91.7465 334.433 91.5354 334.409 91.3118C334.384 91.0883 334.284 90.579 334.235 90.2064C334.185 89.8338 334.173 89.7966 334.148 89.5854C334.048 88.8402 333.986 88.095 333.924 87.3623C333.924 87.2008 333.924 87.0394 333.924 86.8903C333.924 86.1327 333.85 85.3751 333.85 84.6299C333.85 84.1207 333.85 83.6114 333.85 83.1271V82.5682C333.85 82.2701 333.85 81.9596 333.924 81.6739C333.999 81.3883 333.924 81.3013 333.986 81.115C334.048 80.9287 333.986 80.5437 334.086 80.2704C334.185 79.9972 334.16 79.8854 334.185 79.6991C334.21 79.5128 334.272 79.1899 334.322 78.9415C334.371 78.6931 334.409 78.5565 334.446 78.3578C334.483 78.1591 334.558 77.8982 334.607 77.6622C334.657 77.4263 334.719 77.2897 334.769 77.1034C334.818 76.9171 334.893 76.6687 334.967 76.4575L335.154 75.911C335.228 75.7123 335.29 75.5012 335.377 75.3025C335.464 75.1037 335.526 74.9671 335.588 74.7932C335.651 74.6194 335.75 74.4082 335.837 74.2219C335.924 74.0356 335.998 73.899 336.085 73.7375C336.172 73.5761 336.259 73.3773 336.358 73.2035L336.632 72.7564L336.93 72.2471L337.228 71.8249C337.34 71.6758 337.439 71.5144 337.563 71.3653C337.687 71.2163 337.774 71.1045 337.886 70.9679C337.998 70.8313 338.11 70.6822 338.234 70.5456C338.358 70.409 338.47 70.2972 338.582 70.173L338.954 69.788L339.327 69.4526L339.724 69.1049L340.122 68.8068L340.544 68.4963L340.954 68.2231C342.232 67.4246 343.64 66.8571 345.115 66.5464C349.3 65.6521 354.367 66.6333 359.832 69.788C374.165 78.0597 385.765 98.1304 385.716 114.612C385.716 120.822 384.064 125.541 381.269 128.684C380.348 129.732 379.262 130.621 378.052 131.317L377.928 131.379C377.58 131.565 377.22 131.739 376.86 131.9L376.525 132.037C376.185 132.178 375.838 132.302 375.481 132.41H375.295C374.873 132.521 374.438 132.621 374.053 132.708H373.718C373.333 132.708 372.96 132.807 372.563 132.844H372.265C371.78 132.844 371.271 132.844 370.762 132.844H370.439H369.619L368.675 132.733L368.079 132.621L367.508 132.509C367.359 132.509 367.21 132.434 367.061 132.397L366.328 132.223C365.366 131.95 364.421 131.622 363.496 131.242L363.086 131.068C362.577 130.845 362.08 130.621 361.571 130.36C361.501 130.335 361.435 130.301 361.372 130.261C360.826 129.988 360.279 129.702 359.72 129.379C359.162 129.056 358.354 128.547 357.684 128.137H357.584C356.777 127.591 355.97 127.007 355.187 126.398L355.051 126.299C354.38 125.765 353.709 125.218 353.063 124.635H353.001C352.393 124.113 351.759 123.554 351.225 122.995L350.94 122.71C350.517 122.188 350.07 121.716 349.635 121.269Z" fill="white"/>
<path d="M529.204 178.028L529.129 207.041L525.614 209.091L525.701 176.016L529.204 178.028Z" fill="#F0F0F0"/>
<path d="M567.085 228.963L567.072 233.024L525.614 209.091L529.129 207.041L567.085 228.963Z" fill="#F5F5F5"/>
<path d="M521.342 211.513L571.32 240.364L571.444 197.528L521.479 168.676L521.342 211.513ZM525.614 209.029L525.701 175.942L529.204 177.966L567.172 199.962L567.085 228.975V233.036L525.614 209.029Z" fill="#E0E0E0"/>
<path d="M521.466 168.676L524.981 166.639L574.947 195.491L571.432 197.528L521.466 168.676Z" fill="#F5F5F5"/>
<path d="M574.947 195.491L574.822 238.315L571.308 240.364L571.432 197.528L574.947 195.491Z" fill="#F0F0F0"/>
<path d="M530.694 119.244L530.62 148.258L527.092 150.294L527.192 117.22L530.694 119.244Z" fill="#F0F0F0"/>
<path d="M568.575 170.166L568.563 174.24L527.092 150.294L530.62 148.258L568.575 170.166Z" fill="#F5F5F5"/>
<path d="M522.882 152.766L572.848 181.618L572.972 138.781L522.957 109.892L522.882 152.766ZM527.142 150.282L527.241 117.208L530.694 119.232L568.662 141.153L568.575 170.154V174.228L527.142 150.282Z" fill="#E0E0E0"/>
<path d="M522.957 109.892L526.471 107.843L576.437 136.695L572.922 138.744L522.957 109.892Z" fill="#F5F5F5"/>
<path d="M576.437 136.695L576.313 179.531L572.798 181.568L572.922 138.744L576.437 136.695Z" fill="#F0F0F0"/>
<path d="M541.276 189.045L530.918 197.205L530.893 205.166L565.321 225.038L565.346 217.077L558.788 204.048L552.901 208.619L554.975 215.09L551.957 209.351L541.276 189.045Z" fill="#E0E0E0"/>
<path d="M552.578 193.056C550.964 192.125 549.635 192.883 549.635 194.746C549.689 195.76 549.982 196.747 550.492 197.626C551.001 198.505 551.712 199.25 552.566 199.801C554.18 200.744 555.497 199.987 555.509 198.124C555.454 197.108 555.16 196.12 554.651 195.239C554.142 194.358 553.431 193.611 552.578 193.056Z" fill="#E0E0E0"/>
<path d="M542.754 130.261L532.408 138.408L532.383 146.37L566.812 166.254L566.836 158.293L560.279 145.252L554.379 149.835L556.466 156.306L553.448 150.555L542.754 130.261Z" fill="#E0E0E0"/>
<path d="M554.069 134.273C552.442 133.341 551.125 134.086 551.125 135.949C551.177 136.964 551.468 137.953 551.975 138.834C552.483 139.715 553.192 140.463 554.044 141.017C555.671 141.948 556.987 141.203 556.987 139.34C556.936 138.325 556.644 137.336 556.137 136.456C555.63 135.575 554.921 134.827 554.069 134.273Z" fill="#E0E0E0"/>
<path d="M425.385 85.8346L499.744 128.833C501.001 129.56 502.046 130.605 502.774 131.862C503.502 133.12 503.887 134.546 503.892 135.999V210.767C503.85 212.197 503.433 213.591 502.683 214.808C501.933 216.026 500.876 217.026 499.618 217.706C498.36 218.387 496.945 218.725 495.516 218.686C494.086 218.648 492.691 218.234 491.472 217.487L460.422 199.055L459.751 200.136C459.751 200.136 459.689 200.198 459.652 200.235H459.577C458.335 201.043 456.236 202.185 455.764 202.434C455.654 202.47 455.534 202.461 455.43 202.41C455.325 202.359 455.245 202.27 455.205 202.16L452.498 194.485L417.064 174.588C415.8 173.866 414.75 172.823 414.019 171.564C413.289 170.306 412.904 168.877 412.903 167.422V92.5538C412.903 86.5922 421.671 83.6984 425.385 85.8346Z" fill="#8743FB"/>
<path opacity="0.2" d="M459.639 200.136C459.639 200.136 459.577 200.198 459.54 200.235H459.466C458.224 201.043 456.125 202.185 455.653 202.434C455.709 202.425 455.763 202.403 455.81 202.371C455.857 202.339 455.897 202.297 455.926 202.247L458.546 198L458.025 197.702L460.335 199.018L459.639 200.136Z" fill="white"/>
<path opacity="0.4" d="M494.602 136.62C494.067 135.552 493.314 134.608 492.391 133.85C492.075 133.596 491.738 133.368 491.385 133.167L417.026 90.1568C416.607 89.9175 416.132 89.7926 415.649 89.7945C415.166 89.7965 414.692 89.9253 414.274 90.168C413.857 90.4107 413.51 90.7589 413.27 91.1776C413.029 91.5963 412.903 92.0709 412.903 92.5538C412.903 86.5922 421.671 83.6984 425.385 85.8346L499.744 128.833C501.03 129.578 502.094 130.655 502.824 131.95L494.602 136.62Z" fill="white"/>
<path opacity="0.2" d="M495.558 215.102V140.346C495.559 139.046 495.239 137.766 494.627 136.62L502.849 131.95C503.545 133.186 503.913 134.58 503.917 135.999V210.767C503.875 212.197 503.458 213.591 502.708 214.808C501.958 216.026 500.901 217.026 499.643 217.706C498.385 218.387 496.97 218.725 495.54 218.686C494.111 218.648 492.716 218.234 491.497 217.487C491.913 217.71 492.381 217.823 492.854 217.814C493.327 217.805 493.789 217.675 494.197 217.435C494.605 217.196 494.945 216.855 495.183 216.447C495.421 216.038 495.55 215.575 495.558 215.102Z" fill="white"/>
<path d="M431.111 120.871L474.27 145.786L471.674 175.37C471.525 177.171 470.134 177.854 468.482 176.861L435.42 157.734C434.759 157.33 434.181 156.803 433.719 156.182L433.781 157.026C433.979 158.906 434.595 160.718 435.584 162.33C436.572 163.941 437.908 165.312 439.494 166.341L440.947 167.173C441.493 167.302 442.016 167.511 442.5 167.794C443.069 168.139 443.591 168.557 444.052 169.036L459.54 177.979C460.088 178.1 460.612 178.309 461.093 178.6C461.655 178.925 462.176 179.317 462.645 179.767L465.936 181.667C466.302 181.913 466.605 182.24 466.821 182.624C467.037 183.009 467.159 183.438 467.178 183.878C467.178 184.685 466.595 185.008 465.936 184.611L465.676 184.462C466.047 185.442 466.241 186.481 466.247 187.53C466.247 190.808 463.924 192.137 461.055 190.486C459.555 189.507 458.307 188.188 457.411 186.636C456.516 185.085 455.998 183.344 455.901 181.556C455.875 180.717 456.082 179.887 456.497 179.159L447.033 173.694C447.397 174.676 447.59 175.714 447.604 176.761C447.604 180.053 445.269 181.369 442.413 179.717C440.908 178.743 439.657 177.425 438.761 175.873C437.865 174.32 437.35 172.578 437.259 170.787C437.231 169.913 437.46 169.049 437.917 168.303C434.138 165.201 431.722 160.743 431.185 155.883L428.254 116.139C428.165 115.304 427.89 114.499 427.449 113.783C427.009 113.068 426.414 112.46 425.708 112.004L420.367 108.911C420.003 108.667 419.701 108.341 419.485 107.959C419.27 107.578 419.146 107.151 419.125 106.713C419.125 105.893 419.709 105.57 420.367 105.98L425.708 109.06C427.117 109.977 428.304 111.196 429.183 112.629C430.061 114.062 430.61 115.673 430.788 117.344L431.111 120.871ZM453.703 162.988L453.765 139.29C453.732 138.691 453.559 138.108 453.259 137.588C452.959 137.068 452.541 136.626 452.038 136.297C451.082 135.751 450.312 136.185 450.3 137.291L450.237 160.988C450.277 161.581 450.453 162.156 450.753 162.669C451.052 163.182 451.467 163.619 451.964 163.944C452.92 164.49 453.703 164.043 453.703 162.95M461.155 167.273L461.217 143.575C461.184 142.976 461.011 142.393 460.711 141.873C460.411 141.353 459.993 140.91 459.49 140.582C458.534 140.036 457.752 140.47 457.752 141.576V165.273C457.782 165.873 457.955 166.457 458.255 166.977C458.555 167.497 458.974 167.939 459.478 168.266C460.434 168.813 461.204 168.366 461.217 167.273M468.669 171.595L468.743 147.897C468.702 147.302 468.522 146.725 468.218 146.212C467.914 145.698 467.494 145.263 466.992 144.941C466.036 144.395 465.253 144.83 465.253 145.935L465.191 169.632C465.228 170.241 465.411 170.832 465.725 171.355C466.038 171.878 466.473 172.318 466.992 172.638C467.936 173.184 468.718 172.737 468.718 171.644M446.263 158.678L446.325 134.981C446.3 134.379 446.131 133.793 445.83 133.272C445.529 132.75 445.107 132.31 444.599 131.987C443.642 131.441 442.872 131.876 442.86 132.981V156.678C442.894 157.277 443.067 157.86 443.367 158.38C443.667 158.9 444.085 159.342 444.586 159.672C445.543 160.218 446.325 159.771 446.325 158.678M438.873 154.356L438.948 130.658C438.913 130.059 438.739 129.477 438.439 128.957C438.139 128.438 437.722 127.995 437.221 127.665C436.265 127.119 435.483 127.553 435.483 128.659L435.408 152.356C435.441 152.954 435.614 153.535 435.914 154.053C436.214 154.571 436.632 155.011 437.134 155.337C438.091 155.896 438.873 155.449 438.873 154.356ZM442.599 171.557C441.531 170.936 440.662 171.433 440.649 172.663C440.687 173.334 440.882 173.988 441.219 174.57C441.555 175.153 442.024 175.648 442.587 176.016C443.667 176.637 444.524 176.14 444.537 174.911C444.502 174.239 444.308 173.584 443.971 173.001C443.634 172.418 443.164 171.924 442.599 171.557ZM461.229 182.326C460.161 181.705 459.292 182.201 459.292 183.431C459.324 184.102 459.516 184.756 459.851 185.339C460.185 185.922 460.653 186.418 461.217 186.784C462.285 187.405 463.167 186.909 463.167 185.667C463.129 184.997 462.934 184.345 462.597 183.765C462.26 183.184 461.792 182.691 461.229 182.326Z" fill="white"/>
<path d="M486.628 146.419C487.185 146.759 487.643 147.238 487.957 147.81C488.69 149.052 488.69 150.443 487.957 150.853L476.99 157.063C476.777 157.161 476.541 157.2 476.307 157.176C476.073 157.152 475.85 157.066 475.661 156.927C475.109 156.582 474.652 156.103 474.332 155.536L468.967 146.221C468.222 144.979 468.234 143.588 468.967 143.165C469.181 143.07 469.416 143.033 469.649 143.056C469.883 143.08 470.105 143.165 470.296 143.302C470.848 143.647 471.305 144.125 471.625 144.693L475.686 151.772L485.324 146.283C485.534 146.19 485.765 146.153 485.994 146.177C486.223 146.201 486.442 146.285 486.628 146.419Z" fill="white"/>
<path d="M478.481 134.931C485.796 139.154 491.695 149.388 491.671 157.784C491.646 166.18 485.709 169.558 478.394 165.335C471.078 161.112 465.191 150.903 465.216 142.495C465.241 134.086 471.178 130.72 478.481 134.931ZM476.928 157.113L487.895 150.903C488.64 150.493 488.64 149.127 487.895 147.86C487.581 147.288 487.123 146.808 486.566 146.469C486.377 146.33 486.154 146.244 485.92 146.22C485.686 146.196 485.451 146.235 485.237 146.332L475.686 151.772L471.637 144.743C471.318 144.175 470.861 143.697 470.308 143.352C470.118 143.215 469.895 143.13 469.662 143.106C469.429 143.082 469.193 143.12 468.979 143.215C468.246 143.637 468.234 144.991 468.979 146.27L474.345 155.585C474.664 156.153 475.121 156.631 475.674 156.976C475.863 157.116 476.086 157.202 476.319 157.226C476.553 157.25 476.789 157.211 477.003 157.113" fill="#8743FB"/>
<path opacity="0.3" d="M478.481 134.931C485.796 139.154 491.695 149.388 491.671 157.784C491.646 166.18 485.709 169.558 478.394 165.335C471.078 161.112 465.191 150.903 465.216 142.495C465.241 134.086 471.178 130.72 478.481 134.931ZM476.928 157.113L487.895 150.903C488.64 150.493 488.64 149.127 487.895 147.86C487.581 147.288 487.123 146.808 486.566 146.469C486.377 146.33 486.154 146.244 485.92 146.22C485.686 146.196 485.451 146.235 485.237 146.332L475.686 151.772L471.637 144.743C471.318 144.175 470.861 143.697 470.308 143.352C470.118 143.215 469.895 143.13 469.662 143.106C469.429 143.082 469.193 143.12 468.979 143.215C468.246 143.637 468.234 144.991 468.979 146.27L474.345 155.585C474.664 156.153 475.121 156.631 475.674 156.976C475.863 157.116 476.086 157.202 476.319 157.226C476.553 157.25 476.789 157.211 477.003 157.113" fill="white"/>
<path d="M240.091 98.9127C239.222 95.845 232.987 90.0076 226.777 90.1318C226.182 90.1505 225.594 90.268 225.038 90.4796L104.576 158.976C102.562 160.121 100.945 161.854 99.9438 163.944C99.1489 165.512 98.724 167.241 98.7018 168.999V429.633C98.7018 436.265 106.352 442.599 113.544 439.569C113.707 439.523 113.865 439.46 114.016 439.382L234.49 370.724C236.254 369.716 237.721 368.259 238.742 366.501C239.763 364.743 240.301 362.747 240.302 360.714V100.167C240.329 99.7384 240.257 99.3091 240.091 98.9127Z" fill="#455A64"/>
<path d="M115.506 196.571C115.51 195.561 115.781 194.569 116.291 193.697C116.802 192.824 117.533 192.102 118.412 191.603L230.329 127.926C230.766 127.677 231.26 127.546 231.763 127.547C232.266 127.548 232.76 127.681 233.196 127.932C233.632 128.183 233.994 128.544 234.247 128.979C234.501 129.414 234.635 129.907 234.639 130.41V340.556C234.628 341.566 234.355 342.555 233.845 343.426C233.335 344.298 232.607 345.021 231.732 345.524L119.865 409.314C119.429 409.563 118.934 409.694 118.431 409.692C117.928 409.691 117.434 409.559 116.998 409.307C116.562 409.056 116.2 408.695 115.947 408.261C115.694 407.826 115.559 407.333 115.556 406.829L115.506 196.571Z" fill="#8743FB"/>
<path opacity="0.2" d="M115.506 196.571C115.51 195.561 115.781 194.569 116.291 193.697C116.802 192.824 117.533 192.102 118.412 191.603L230.329 127.926C230.766 127.677 231.26 127.546 231.763 127.547C232.266 127.548 232.76 127.681 233.196 127.932C233.632 128.183 233.994 128.544 234.247 128.979C234.501 129.414 234.635 129.907 234.639 130.41V340.556C234.628 341.566 234.355 342.555 233.845 343.426C233.335 344.298 232.607 345.021 231.732 345.524L119.865 409.314C119.429 409.563 118.934 409.694 118.431 409.692C117.928 409.691 117.434 409.559 116.998 409.307C116.562 409.056 116.2 408.695 115.947 408.261C115.694 407.826 115.559 407.333 115.556 406.829L115.506 196.571Z" fill="black"/>
<path opacity="0.1" d="M115.506 196.571C115.51 195.561 115.781 194.569 116.291 193.697C116.802 192.824 117.533 192.102 118.412 191.603L230.329 127.926C230.766 127.677 231.26 127.546 231.763 127.547C232.266 127.548 232.76 127.681 233.196 127.932C233.632 128.183 233.994 128.544 234.247 128.979C234.501 129.414 234.635 129.907 234.639 130.41V340.556C234.628 341.566 234.355 342.555 233.845 343.426C233.335 344.298 232.607 345.021 231.732 345.524L119.865 409.314C119.429 409.563 118.934 409.694 118.431 409.692C117.928 409.691 117.434 409.559 116.998 409.307C116.562 409.056 116.2 408.695 115.947 408.261C115.694 407.826 115.559 407.333 115.556 406.829L115.506 196.571Z" fill="white"/>
<path opacity="0.3" d="M98.7515 169.024V429.633C98.7515 436.265 106.402 442.599 113.593 439.569C113.162 439.726 112.698 439.778 112.243 439.718C111.787 439.659 111.352 439.49 110.976 439.227C110.599 438.964 110.291 438.613 110.079 438.206C109.867 437.798 109.756 437.345 109.756 436.886V176.227C109.786 173.954 110.491 171.741 111.78 169.868L99.9438 163.944C99.1624 165.524 98.7545 167.261 98.7515 169.024Z" fill="black"/>
<path opacity="0.1" d="M226.789 90.1195C226.194 90.1382 225.607 90.2557 225.05 90.4673L104.576 158.976C102.562 160.121 100.945 161.854 99.9437 163.944L111.78 169.868C112.762 168.335 114.094 167.058 115.667 166.142L236.141 97.6088C236.482 97.4129 236.86 97.2895 237.25 97.2463C237.641 97.203 238.037 97.2409 238.412 97.3575C238.787 97.474 239.135 97.6668 239.432 97.9238C239.73 98.1807 239.971 98.4963 240.141 98.8508C239.234 95.8327 232.999 89.9953 226.789 90.1195Z" fill="white"/>
<path d="M189.939 140.694C190.796 140.209 191.492 140.594 191.492 141.563C191.459 142.097 191.303 142.616 191.036 143.08C190.769 143.543 190.398 143.938 189.952 144.233L166.354 157.895C165.509 158.392 164.826 157.982 164.826 157.001C164.854 156.474 165.006 155.961 165.27 155.504C165.533 155.047 165.9 154.658 166.341 154.368L189.939 140.694Z" fill="#263238"/>
<path d="M160.218 157.846C161.063 157.361 161.746 157.746 161.746 158.728C161.716 159.259 161.562 159.776 161.297 160.238C161.032 160.699 160.662 161.092 160.218 161.385C159.373 161.87 158.678 161.472 158.678 160.504C158.704 159.97 158.858 159.45 159.126 158.988C159.394 158.526 159.768 158.134 160.218 157.846Z" fill="#263238"/>
<path d="M175.37 138.719C177.06 137.738 178.426 138.52 178.426 140.458C178.373 141.519 178.07 142.553 177.541 143.475C177.012 144.397 176.273 145.18 175.383 145.761C173.694 146.742 172.29 145.947 172.29 143.997C172.353 142.937 172.664 141.907 173.199 140.99C173.735 140.073 174.478 139.295 175.37 138.719Z" fill="#263238"/>
<path d="M175.37 384.051C178.823 382.064 181.58 383.654 181.58 387.603C181.47 389.768 180.851 391.876 179.771 393.756C178.692 395.636 177.184 397.235 175.37 398.421C171.93 400.408 169.073 398.781 169.061 394.819C169.19 392.654 169.828 390.55 170.925 388.679C172.021 386.808 173.545 385.222 175.37 384.051Z" fill="#263238"/>
<path d="M234.266 124.622L274.954 158.392L260.124 166.962L219.449 133.192L234.266 124.622Z" fill="#8743FB"/>
<path d="M204.62 141.762L245.295 175.519L230.466 184.089L189.802 150.332L204.62 141.762Z" fill="#8743FB"/>
<path d="M189.803 150.332L230.466 184.089L215.636 192.659L174.973 158.901L189.803 150.332Z" fill="white"/>
<path d="M219.449 133.192L260.124 166.962L245.295 175.519L204.62 141.762L219.449 133.192Z" fill="white"/>
<path d="M145.326 176.029L185.977 209.786L171.148 218.356L130.497 184.598L145.326 176.029Z" fill="#8743FB"/>
<path d="M174.973 158.901L215.636 192.659L200.807 201.216L160.144 167.459L174.973 158.901Z" fill="#8743FB"/>
<path d="M115.394 193.33L130.497 184.598L171.148 218.356L156.008 227.1L115.394 193.33Z" fill="white"/>
<path d="M160.143 167.459L200.807 201.216L185.977 209.786L145.326 176.029L160.143 167.459Z" fill="white"/>
<path d="M274.954 158.392L260.125 166.962C260.123 167.967 260.387 168.955 260.889 169.825C261.39 170.696 262.112 171.42 262.982 171.923C263.851 172.427 264.838 172.692 265.843 172.694C266.848 172.695 267.836 172.431 268.707 171.93C270.598 170.825 272.167 169.244 273.256 167.343C274.346 165.443 274.918 163.29 274.917 161.1L274.954 158.392Z" fill="#8743FB"/>
<path d="M260.125 166.962L245.295 175.532C245.294 176.537 245.558 177.524 246.059 178.395C246.561 179.266 247.282 179.99 248.152 180.493C249.022 180.996 250.009 181.262 251.014 181.263C252.019 181.265 253.006 181.001 253.877 180.5C255.77 179.397 257.34 177.816 258.43 175.915C259.52 174.014 260.091 171.861 260.087 169.67L260.125 166.962Z" fill="#E0E0E0"/>
<path d="M245.295 175.532L230.466 184.089C230.465 185.094 230.728 186.082 231.23 186.953C231.731 187.823 232.453 188.547 233.323 189.05C234.192 189.554 235.179 189.82 236.184 189.821C237.189 189.822 238.177 189.559 239.048 189.057C240.941 187.954 242.511 186.373 243.601 184.472C244.691 182.572 245.262 180.418 245.258 178.227L245.295 175.532Z" fill="#8743FB"/>
<path d="M230.466 184.089L215.636 192.659C215.631 193.665 215.892 194.655 216.393 195.528C216.894 196.401 217.616 197.127 218.487 197.631C219.358 198.135 220.347 198.4 221.353 198.4C222.36 198.399 223.348 198.132 224.218 197.627C226.11 196.526 227.68 194.947 228.77 193.048C229.86 191.15 230.432 188.998 230.428 186.809L230.466 184.089Z" fill="#E0E0E0"/>
<path d="M215.636 192.659L200.807 201.204C200.806 202.209 201.069 203.196 201.571 204.067C202.072 204.938 202.794 205.662 203.664 206.165C204.534 206.669 205.52 206.934 206.525 206.936C207.53 206.937 208.518 206.673 209.389 206.172C211.282 205.069 212.852 203.488 213.942 201.587C215.032 199.686 215.603 197.533 215.599 195.342L215.636 192.659Z" fill="#8743FB"/>
<path d="M200.807 201.204L185.977 209.761C185.976 210.766 186.24 211.754 186.741 212.625C187.243 213.496 187.965 214.219 188.834 214.723C189.704 215.226 190.691 215.492 191.696 215.493C192.701 215.494 193.688 215.231 194.559 214.729C196.451 213.624 198.019 212.043 199.109 210.143C200.199 208.242 200.771 206.09 200.769 203.899L200.807 201.204Z" fill="#E0E0E0"/>
<path d="M185.977 209.786L171.148 218.356C171.143 219.362 171.404 220.352 171.905 221.225C172.405 222.098 173.128 222.824 173.999 223.328C174.87 223.832 175.858 224.097 176.865 224.097C177.871 224.096 178.86 223.829 179.73 223.324C181.629 222.228 183.204 220.648 184.295 218.746C185.385 216.844 185.953 214.686 185.94 212.494L185.977 209.786Z" fill="#8743FB"/>
<path opacity="0.2" d="M274.954 158.392L260.125 166.962C260.123 167.967 260.387 168.955 260.889 169.825C261.39 170.696 262.112 171.42 262.982 171.923C263.851 172.427 264.838 172.692 265.843 172.694C266.848 172.695 267.836 172.431 268.707 171.93C270.598 170.825 272.167 169.244 273.256 167.343C274.346 165.443 274.918 163.29 274.917 161.1L274.954 158.392Z" fill="black"/>
<path opacity="0.2" d="M245.295 175.532L230.466 184.089C230.465 185.094 230.728 186.082 231.23 186.953C231.731 187.823 232.453 188.547 233.323 189.05C234.192 189.554 235.179 189.82 236.184 189.821C237.189 189.822 238.177 189.559 239.048 189.057C240.941 187.954 242.511 186.373 243.601 184.472C244.691 182.572 245.262 180.418 245.258 178.227L245.295 175.532Z" fill="black"/>
<path opacity="0.2" d="M215.636 192.659L200.807 201.204C200.806 202.209 201.069 203.196 201.571 204.067C202.072 204.938 202.794 205.662 203.664 206.165C204.534 206.669 205.52 206.934 206.525 206.936C207.53 206.937 208.518 206.673 209.389 206.172C211.282 205.069 212.852 203.488 213.942 201.587C215.032 199.686 215.603 197.533 215.599 195.342L215.636 192.659Z" fill="black"/>
<path opacity="0.2" d="M185.977 209.786L171.148 218.356C171.143 219.362 171.404 220.352 171.905 221.225C172.405 222.098 173.128 222.824 173.999 223.328C174.87 223.832 175.858 224.097 176.865 224.097C177.871 224.096 178.86 223.829 179.73 223.324C181.629 222.228 183.204 220.648 184.295 218.746C185.385 216.844 185.953 214.686 185.94 212.494L185.977 209.786Z" fill="black"/>
<path d="M171.148 218.356L156.008 227.05C156.004 228.055 156.265 229.042 156.765 229.914C157.265 230.785 157.986 231.509 158.855 232.013C159.725 232.517 160.711 232.783 161.716 232.783C162.72 232.784 163.707 232.52 164.577 232.018C166.576 230.864 168.236 229.204 169.389 227.204C170.543 225.205 171.149 222.937 171.148 220.629V218.356Z" fill="#E0E0E0"/>
<path d="M188.436 262.062C184.037 262.583 179.77 263.901 175.842 265.949C166.686 270.673 159.689 278.727 156.293 288.455C154.82 292.632 154.117 297.042 154.219 301.471C155.195 297.286 156.606 293.215 158.429 289.324C162.508 280.606 168.938 273.199 176.997 267.937C180.597 265.589 184.431 263.62 188.436 262.062Z" fill="#8743FB"/>
<path d="M176.836 327.093C174.422 327.052 172.029 326.633 169.744 325.851C167.206 325.01 164.862 323.667 162.852 321.902C160.843 320.138 159.208 317.988 158.045 315.58C156.969 313.419 156.244 311.1 155.896 308.711C155.636 311.212 155.964 313.738 156.852 316.089C157.853 318.828 159.526 321.271 161.718 323.194C163.91 325.117 166.551 326.458 169.396 327.093C171.843 327.672 174.39 327.672 176.836 327.093Z" fill="#8743FB"/>
<path d="M196.087 287.15C196.329 290.46 196.28 293.785 195.938 297.086C195.152 304.545 192.707 311.734 188.784 318.126C187.042 320.967 185.051 323.647 182.835 326.137C185.688 324.229 188.206 321.862 190.287 319.132C195.105 312.843 197.723 305.145 197.739 297.223C197.746 293.798 197.187 290.394 196.087 287.15Z" fill="#8743FB"/>
<path d="M157.15 273.439C154.148 276.326 151.695 279.735 149.909 283.499C145.704 292.233 145.002 302.246 147.947 311.481C149.202 315.456 151.158 319.174 153.722 322.46C152.092 318.755 150.844 314.893 149.996 310.935C148.138 302.07 148.783 292.863 151.859 284.343C153.236 280.533 155.01 276.878 157.15 273.439Z" fill="#8743FB"/>
<path d="M204.595 274.904C204.277 271.512 203.06 268.266 201.067 265.502C198.806 262.238 195.642 259.704 191.962 258.211C188.283 256.717 184.248 256.329 180.351 257.094C176.998 257.701 173.866 259.183 171.272 261.391C174.189 259.961 177.349 259.093 180.587 258.833C184.16 258.505 187.76 259.038 191.085 260.386C194.411 261.735 197.365 263.859 199.701 266.583C201.841 269.024 203.501 271.847 204.595 274.904Z" fill="#8743FB"/>
<path d="M257.864 235.98C261.798 235.58 265.739 236.681 268.896 239.062C272.054 241.443 274.195 244.929 274.892 248.822L280.655 281.114L316.797 306.389L308.724 316.213L274.345 298.154C272.32 297.092 270.529 295.634 269.076 293.868C267.623 292.102 266.539 290.063 265.887 287.871L254.809 250.499L257.864 235.98Z" fill="#FFA8A7"/>
<path d="M271.278 270.681C274.471 268.981 277.029 266.293 278.568 263.018L275.327 248.214C274.499 244.454 272.318 241.13 269.199 238.874C266.08 236.618 262.24 235.588 258.411 235.98L257.864 236.042L254.809 250.586L259.578 271.998C263.509 272.98 267.663 272.513 271.278 270.681Z" fill="#455A64"/>
<path d="M271.278 270.682C267.663 272.513 263.509 272.98 259.578 271.998L260.82 277.277C265.304 278.283 276.792 277.947 279.785 268.458L278.543 262.994C277.015 266.274 274.466 268.971 271.278 270.682Z" fill="#455A64"/>
<path opacity="0.2" d="M271.278 270.681C274.471 268.981 277.029 266.293 278.568 263.018L275.327 248.214C274.499 244.454 272.318 241.13 269.199 238.874C266.08 236.618 262.24 235.588 258.411 235.98L257.864 236.042L254.809 250.586L259.578 271.998C263.509 272.98 267.663 272.513 271.278 270.681Z" fill="white"/>
<path opacity="0.5" d="M271.278 270.682C267.663 272.513 263.509 272.98 259.578 271.998L260.82 277.277C265.304 278.283 276.792 277.947 279.785 268.458L278.543 262.994C277.015 266.274 274.466 268.971 271.278 270.682Z" fill="white"/>
<path d="M265.862 249.878C265.862 249.878 264.422 238.886 257.864 236.017C257.864 236.017 242.165 240.724 229.149 245.668C224.001 247.545 218.96 249.701 214.046 252.126C211.09 254.685 202.607 262.298 198.621 264.347C196.673 265.321 194.572 265.951 192.411 266.21C189.679 266.649 187.057 267.606 184.685 269.03C172.737 275.935 163.087 292.628 163.124 306.377C163.124 315.381 167.347 320.833 173.594 321.591H173.88C174.867 321.696 175.862 321.696 176.848 321.591C187.716 321.492 205.141 321.405 211.985 319.442C243.954 310.053 269.092 286.902 265.862 249.878Z" fill="#455A64"/>
<path d="M235.396 245.37L240.079 236.874L258.92 249.568L251.468 259.578C249.903 260.345 248.197 260.777 246.456 260.847C244.715 260.918 242.979 260.625 241.358 259.988C239.756 259.249 238.322 258.189 237.147 256.873C235.972 255.556 235.08 254.013 234.527 252.337C234.196 251.177 234.103 249.962 234.252 248.765C234.402 247.568 234.791 246.413 235.396 245.37Z" fill="#FFA8A7"/>
<path opacity="0.2" d="M241.842 238.054C241.842 248.288 249.977 253.082 254.945 254.896L258.92 249.567L241.842 238.054Z" fill="black"/>
<path d="M233.335 227.845C232.639 223.759 231.931 219.561 232.726 215.487C233.521 211.413 236.154 207.439 240.178 206.247C240.995 204.505 242.164 202.952 243.611 201.684C245.059 200.416 246.752 199.462 248.586 198.881C252.182 197.9 255.902 197.448 259.628 197.54C263.739 197.294 267.865 197.523 271.924 198.223C276.013 198.954 279.73 201.062 282.456 204.197C283.853 206.121 284.844 208.309 285.369 210.627C285.894 212.946 285.943 215.347 285.511 217.685C284.62 222.358 282.89 226.831 280.406 230.888C272.507 231.447 264.459 232.353 256.56 232.912C252.536 233.334 248.481 233.372 244.451 233.024C240.337 232.359 236.489 230.566 233.335 227.845Z" fill="#263238"/>
<path d="M281.698 208.904C283.723 221.059 282.383 233.537 277.823 244.984C276.767 247.63 275.339 250.375 272.917 251.778C270.495 253.182 267.117 252.958 264.223 252.511C259.437 251.966 254.769 250.653 250.4 248.624C246.002 246.549 242.576 242.856 240.836 238.315C239.27 238.63 237.647 238.487 236.16 237.904C234.673 237.32 233.386 236.32 232.453 235.024C230.619 232.333 229.668 229.138 229.733 225.883C229.733 223.808 230.118 221.362 231.981 220.455C233.844 219.548 235.781 220.554 237.284 221.771C239.748 223.775 241.549 226.477 242.451 229.522C243.817 224.467 245.941 219.586 247.307 214.618C247.854 212.63 248.549 210.469 250.251 209.364C252.362 208.01 255.119 208.78 257.566 209.364C265.518 211.267 273.824 211.109 281.698 208.904Z" fill="#FFA8A7"/>
<path d="M266.993 224.218L272.892 234.142L265.863 235.471L266.993 224.218Z" fill="#F28F8F"/>
<path d="M259.081 238.886L264.422 241.482C263.966 242.091 263.323 242.533 262.592 242.742C261.861 242.951 261.081 242.914 260.373 242.637C259.761 242.254 259.299 241.673 259.064 240.99C258.829 240.307 258.835 239.565 259.081 238.886Z" fill="#F28F8F"/>
<path opacity="0.3" d="M259.081 238.886L264.422 241.482C263.966 242.091 263.323 242.533 262.592 242.742C261.861 242.951 261.081 242.914 260.373 242.637C259.761 242.254 259.299 241.673 259.064 240.99C258.829 240.307 258.835 239.565 259.081 238.886Z" fill="black"/>
<path d="M262.224 242.811C261.603 242.937 260.959 242.877 260.373 242.637C259.882 242.362 259.483 241.947 259.229 241.445C258.974 240.943 258.876 240.376 258.945 239.818C259.711 239.819 260.454 240.077 261.056 240.551C261.724 241.124 262.143 241.935 262.224 242.811Z" fill="#F28F8F"/>
<path d="M256.808 224.616C256.769 225.014 256.848 225.416 257.036 225.769C257.225 226.123 257.514 226.413 257.867 226.602C258.22 226.791 258.621 226.871 259.02 226.832C259.419 226.793 259.797 226.637 260.107 226.383C260.416 226.129 260.644 225.788 260.76 225.405C260.876 225.022 260.876 224.612 260.76 224.229C260.643 223.846 260.416 223.505 260.106 223.251C259.796 222.998 259.418 222.841 259.019 222.802C258.486 222.75 257.953 222.912 257.539 223.252C257.124 223.592 256.862 224.082 256.808 224.616Z" fill="#263238"/>
<path d="M273.749 225.659C273.71 226.055 273.788 226.453 273.975 226.804C274.162 227.155 274.448 227.443 274.798 227.631C275.148 227.82 275.546 227.9 275.942 227.862C276.338 227.824 276.714 227.67 277.022 227.419C277.33 227.168 277.557 226.831 277.674 226.451C277.791 226.071 277.793 225.665 277.679 225.284C277.566 224.903 277.342 224.564 277.036 224.311C276.73 224.057 276.355 223.899 275.96 223.858C275.697 223.831 275.43 223.855 275.176 223.931C274.922 224.007 274.686 224.132 274.481 224.299C274.275 224.467 274.105 224.673 273.979 224.906C273.854 225.14 273.776 225.395 273.749 225.659Z" fill="#263238"/>
<path d="M276.506 217.859L280.655 221.386C280.903 220.854 280.983 220.258 280.883 219.678C280.783 219.099 280.509 218.564 280.096 218.145C279.584 217.768 278.976 217.541 278.342 217.491C277.708 217.44 277.072 217.568 276.506 217.859Z" fill="#263238"/>
<path d="M259.988 217.586L255.231 220.219C255.092 219.648 255.13 219.049 255.341 218.5C255.552 217.952 255.925 217.481 256.411 217.151C256.989 216.885 257.629 216.784 258.261 216.861C258.893 216.938 259.491 217.189 259.988 217.586Z" fill="#263238"/>
<path d="M285.474 212.991C268.196 215.756 250.588 215.756 233.31 212.991C234.117 191.877 243.618 184.959 260.013 184.959C276.407 184.959 285.66 193.752 285.474 212.991Z" fill="#455A64"/>
<path d="M285.474 212.991C285.474 204.905 283.909 198.695 280.841 194.187L273.973 192.262C270.74 191.354 267.347 191.175 264.037 191.74L257.492 192.833C255.252 193.193 253.19 194.275 251.621 195.914C250.052 197.552 249.061 199.658 248.798 201.912L247.295 214.655C260.043 215.573 272.854 215.014 285.474 212.991Z" fill="#455A64"/>
<path opacity="0.29" d="M285.474 212.991C285.474 204.905 283.909 198.695 280.841 194.187L273.973 192.262C270.74 191.354 267.347 191.175 264.037 191.74L257.492 192.833C255.252 193.193 253.19 194.275 251.621 195.914C250.052 197.552 249.061 199.658 248.798 201.912L247.295 214.655C260.043 215.573 272.854 215.014 285.474 212.991Z" fill="white"/>
<path d="M287.523 195.218H284.493C283.511 195.218 282.543 195.218 281.574 195.329C272.688 195.975 264.267 199.548 257.628 205.489L247.419 214.655C260.126 215.563 272.895 215.005 285.474 212.991L292.118 204.93C292.825 204.057 293.27 203.003 293.404 201.888C293.538 200.774 293.354 199.644 292.874 198.629C292.393 197.615 291.637 196.756 290.69 196.152C289.743 195.549 288.646 195.225 287.523 195.218Z" fill="#455A64"/>
<path opacity="0.2" d="M287.523 195.218H284.493C283.511 195.218 282.543 195.218 281.574 195.329C272.688 195.975 264.267 199.548 257.628 205.489L247.419 214.655C260.126 215.563 272.895 215.005 285.474 212.991L292.118 204.93C292.825 204.057 293.27 203.003 293.404 201.888C293.538 200.774 293.354 199.644 292.874 198.629C292.393 197.615 291.637 196.756 290.69 196.152C289.743 195.549 288.646 195.225 287.523 195.218Z" fill="black"/>
<path d="M340.022 308.091L293.721 334.992L247.121 308.091L293.41 281.176L340.022 308.091Z" fill="#8743FB"/>
<g opacity="0.3">
<path d="M340.022 308.091L293.721 334.992L247.121 308.091L293.41 281.176L340.022 308.091Z" fill="white"/>
</g>
<path d="M340.022 308.091L339.886 355.187L293.584 382.089L293.721 334.992L340.022 308.091Z" fill="#8743FB"/>
<g opacity="0.1">
<path d="M340.022 308.091L339.886 355.187L293.584 382.089L293.721 334.992L340.022 308.091Z" fill="white"/>
</g>
<path d="M293.721 334.992L293.584 382.089L246.984 355.187L247.121 308.091L293.721 334.992Z" fill="#8743FB"/>
<path d="M301.781 304.638L317.455 295.062L309.457 290.442L293.721 299.831L301.781 304.638Z" fill="#E0E0E0"/>
<path d="M301.781 304.638L293.721 299.831L277.736 290.293L269.762 294.925L285.648 304.638L293.721 309.569L315.033 322.61L323.578 317.642L301.781 304.638Z" fill="white"/>
<path d="M285.648 304.638L263.764 317.691L272.333 322.647L293.721 309.568L285.648 304.638Z" fill="#E0E0E0"/>
<path d="M323.578 317.641L315.033 322.609L315.108 322.647L315.232 369.507L323.876 364.49L323.752 317.728L323.578 317.641Z" fill="#E0E0E0"/>
<path d="M272.333 322.647L263.764 317.691L263.689 317.728L263.552 364.763L272.197 369.743L272.333 322.647Z" fill="white"/>
<path opacity="0.2" d="M272.333 322.647L263.764 317.691L263.689 317.728L263.552 364.763L272.197 369.743L272.333 322.647Z" fill="black"/>
<path d="M293.696 318.871L284.008 324.795L293.696 330.397L303.359 324.783L293.696 318.871Z" fill="white"/>
<path d="M202.036 317.244C202.036 317.244 205.65 264.645 206.408 261.354C209.302 248.847 227.435 249.741 229.161 262.459C229.869 267.651 221.585 318.064 221.585 318.064L251.592 349.809L257.665 355.386L263.08 354.293L275.426 355.46C275.754 355.493 276.063 355.632 276.305 355.856C276.547 356.08 276.709 356.378 276.767 356.702C276.847 357.087 276.775 357.487 276.567 357.82C276.358 358.153 276.03 358.394 275.649 358.491L267.49 360.478L273.377 364.502C274.202 365.068 275.137 365.453 276.121 365.632L285.349 367.384C285.757 367.459 286.123 367.681 286.377 368.009C286.631 368.336 286.756 368.746 286.728 369.16C286.709 369.487 286.596 369.802 286.402 370.066C286.208 370.331 285.942 370.533 285.635 370.65L280.667 372.501C277.448 373.709 274.006 374.208 270.576 373.964C267.147 373.719 263.81 372.737 260.795 371.085L250.114 365.148C248.548 364.305 247.07 363.307 245.705 362.167L207.414 330.496C205.485 328.91 203.982 326.867 203.043 324.553C202.104 322.238 201.758 319.726 202.036 317.244Z" fill="#FFA8A7"/>
<path d="M228.677 297.086L232.515 268.52C232.753 266.574 232.605 264.599 232.08 262.71C231.555 260.82 230.663 259.053 229.455 257.508C228.247 255.963 226.747 254.671 225.039 253.706C223.332 252.741 221.452 252.122 219.505 251.884C217.558 251.646 215.584 251.793 213.694 252.318C211.805 252.843 210.037 253.735 208.492 254.943C206.947 256.151 205.656 257.652 204.691 259.359C203.726 261.066 203.106 262.947 202.868 264.894L199.664 294.044C204.016 296.558 208.85 298.125 213.85 298.643C218.849 299.161 223.902 298.618 228.677 297.049V297.086Z" fill="#455A64"/>
<path opacity="0.2" d="M228.677 297.086L232.515 268.52C232.753 266.574 232.605 264.599 232.08 262.71C231.555 260.82 230.663 259.053 229.455 257.508C228.247 255.963 226.747 254.671 225.039 253.706C223.332 252.741 221.452 252.122 219.505 251.884C217.558 251.646 215.584 251.793 213.694 252.318C211.805 252.843 210.037 253.735 208.492 254.943C206.947 256.151 205.656 257.652 204.691 259.359C203.726 261.066 203.106 262.947 202.868 264.894L199.664 294.044C204.016 296.558 208.85 298.125 213.85 298.643C218.849 299.161 223.902 298.618 228.677 297.049V297.086Z" fill="white"/>
<path d="M213.264 298.614C208.454 298.024 203.81 296.483 199.602 294.081L198.869 300.8C211.773 310.736 227.596 304.6 227.596 304.6L228.615 297.086C223.666 298.686 218.431 299.207 213.264 298.614Z" fill="#455A64"/>
<path opacity="0.5" d="M213.264 298.614C208.454 298.024 203.81 296.483 199.602 294.081L198.869 300.8C211.773 310.736 227.596 304.6 227.596 304.6L228.615 297.086C223.666 298.686 218.431 299.207 213.264 298.614Z" fill="white"/>
<path d="M548.889 394.67L569.035 395.267L589.18 394.67C590.037 408.332 587.391 422.143 583.728 428.912C582.86 430.65 581.465 432.067 579.741 432.961C573.792 436.402 564.191 436.402 558.279 432.961C556.533 432.049 555.136 430.587 554.305 428.801C550.653 421.994 548.033 408.208 548.889 394.67Z" fill="white"/>
<path d="M554.839 386.423C546.952 390.982 546.902 398.372 554.739 402.93C562.576 407.488 575.332 407.475 583.231 402.93C591.13 398.384 591.167 390.982 583.318 386.423C575.468 381.865 562.725 381.865 554.839 386.423Z" fill="#EBEBEB"/>
<path d="M557.956 388.237C551.746 391.789 551.746 397.552 557.882 401.116C564.017 404.681 573.953 404.668 580.113 401.116C586.274 397.564 586.323 391.789 580.175 388.237C574.028 384.685 564.116 384.685 557.956 388.237Z" fill="#E0E0E0"/>
<g opacity="0.15">
<path d="M557.956 388.237C551.746 391.789 551.746 397.552 557.882 401.116C564.017 404.681 573.953 404.668 580.113 401.116C586.274 397.564 586.323 391.789 580.175 388.237C574.028 384.685 564.116 384.685 557.956 388.237Z" fill="black"/>
</g>
<path d="M579.306 353.461C582.585 349.387 586.385 345.736 589.391 341.463C591.44 338.544 593.117 334.967 592.285 331.527C591.809 329.937 590.896 328.513 589.652 327.415C588.407 326.318 586.88 325.591 585.243 325.317C581.936 324.825 578.563 325.577 575.779 327.428C573.021 329.27 570.601 331.572 568.625 334.235C557.278 348.602 551.912 366.794 553.646 385.02C553.688 387.107 554.34 389.136 555.522 390.857C556.246 391.706 557.198 392.331 558.265 392.656C559.332 392.982 560.471 392.996 561.545 392.696C567.035 391.069 566.302 383.654 567.197 379.294C568.431 373.31 570.557 367.544 573.506 362.192C575.177 359.115 577.118 356.194 579.306 353.461Z" fill="#8743FB"/>
<path opacity="0.2" d="M579.306 353.461C582.585 349.387 586.385 345.736 589.391 341.463C591.44 338.544 593.117 334.967 592.285 331.527C591.809 329.937 590.896 328.513 589.652 327.415C588.407 326.318 586.88 325.591 585.243 325.317C581.936 324.825 578.563 325.577 575.779 327.428C573.021 329.27 570.601 331.572 568.625 334.235C557.278 348.602 551.912 366.794 553.646 385.02C553.688 387.107 554.34 389.136 555.522 390.857C556.246 391.706 557.198 392.331 558.265 392.656C559.332 392.982 560.471 392.996 561.545 392.696C567.035 391.069 566.302 383.654 567.197 379.294C568.431 373.31 570.557 367.544 573.506 362.192C575.177 359.115 577.118 356.194 579.306 353.461Z" fill="white"/>
<path d="M561.198 387.131C561.304 387.109 561.4 387.052 561.47 386.968C561.54 386.885 561.579 386.781 561.583 386.672C561.968 377.866 564.837 347.81 585.553 330.782C585.603 330.743 585.645 330.695 585.676 330.639C585.706 330.584 585.725 330.523 585.731 330.46C585.736 330.397 585.729 330.334 585.709 330.274C585.69 330.214 585.658 330.158 585.615 330.111C585.577 330.062 585.528 330.02 585.474 329.99C585.419 329.959 585.358 329.94 585.296 329.933C585.233 329.926 585.17 329.932 585.11 329.949C585.049 329.967 584.993 329.997 584.945 330.037C563.918 347.35 561.011 377.767 560.626 386.672C560.623 386.798 560.669 386.921 560.755 387.014C560.841 387.107 560.96 387.162 561.086 387.169L561.198 387.131Z" fill="#F0F0F0"/>
<path d="M558.18 388.075C558.613 390.003 559.432 391.822 560.587 393.425C561.741 395.028 563.208 396.381 564.899 397.403C568.068 398.912 571.595 399.505 575.083 399.117C578.614 398.699 582.082 397.866 585.417 396.633C587.081 396.074 588.919 395.329 589.143 393.267C589.167 392.728 589.075 392.19 588.871 391.69C588.667 391.191 588.357 390.741 587.963 390.373C587.627 390.04 587.27 389.729 586.895 389.442C586.722 389.313 586.592 389.134 586.524 388.929C586.455 388.725 586.451 388.504 586.512 388.297C586.573 388.09 586.696 387.906 586.864 387.771C587.033 387.636 587.238 387.556 587.454 387.541C588.441 387.474 589.424 387.349 590.397 387.169C592.681 386.812 594.826 385.847 596.607 384.374C597.899 383.229 598.882 381.777 599.464 380.151C599.961 378.76 600.11 377.022 599.054 375.991C598.403 375.448 597.61 375.103 596.769 374.997C596.036 374.836 595.291 374.699 594.558 374.587C594.346 374.556 594.15 374.456 594 374.303C593.85 374.15 593.755 373.952 593.728 373.739C593.701 373.526 593.745 373.311 593.852 373.125C593.959 372.94 594.124 372.795 594.322 372.712L597.452 371.408C598.351 371.115 599.165 370.608 599.824 369.93C600.229 369.299 600.492 368.589 600.595 367.847C600.698 367.105 600.638 366.349 600.42 365.632C600.035 363.67 599.364 361.782 598.905 359.845C598.349 357.936 598.259 355.921 598.644 353.97C592.788 353.318 586.862 353.714 581.144 355.138C579.423 355.495 577.795 356.206 576.363 357.224C574.413 358.789 573.879 361.124 574.114 363.67C574.122 363.773 574.094 363.876 574.035 363.96C573.975 364.045 573.889 364.106 573.789 364.134C573.689 364.162 573.583 364.155 573.489 364.113C573.394 364.071 573.317 363.998 573.27 363.906L571.32 360.18C571.027 359.649 570.543 359.25 569.965 359.065C569.388 358.881 568.761 358.924 568.215 359.186C566.463 360.064 564.908 361.29 563.644 362.788C562.946 363.582 562.413 364.507 562.079 365.51C561.744 366.512 561.613 367.572 561.694 368.626C561.935 371.522 562.422 374.393 563.148 377.208C563.195 377.368 563.191 377.539 563.134 377.696C563.078 377.854 562.972 377.989 562.833 378.082C562.695 378.175 562.53 378.221 562.363 378.213C562.196 378.206 562.036 378.145 561.906 378.04H561.819C561.282 377.624 560.607 377.429 559.931 377.494C558.167 377.705 557.72 379.493 557.596 381.021C557.507 383.387 557.703 385.756 558.18 388.075Z" fill="#8743FB"/>
<path opacity="0.2" d="M558.18 388.075C558.613 390.003 559.432 391.822 560.587 393.425C561.741 395.028 563.208 396.381 564.899 397.403C568.068 398.912 571.595 399.505 575.083 399.117C578.614 398.699 582.082 397.866 585.417 396.633C587.081 396.074 588.919 395.329 589.143 393.267C589.167 392.728 589.075 392.19 588.871 391.69C588.667 391.191 588.357 390.741 587.963 390.373C587.627 390.04 587.27 389.729 586.895 389.442C586.722 389.313 586.592 389.134 586.524 388.929C586.455 388.725 586.451 388.504 586.512 388.297C586.573 388.09 586.696 387.906 586.864 387.771C587.033 387.636 587.238 387.556 587.454 387.541C588.441 387.474 589.424 387.349 590.397 387.169C592.681 386.812 594.826 385.847 596.607 384.374C597.899 383.229 598.882 381.777 599.464 380.151C599.961 378.76 600.11 377.022 599.054 375.991C598.403 375.448 597.61 375.103 596.769 374.997C596.036 374.836 595.291 374.699 594.558 374.587C594.346 374.556 594.15 374.456 594 374.303C593.85 374.15 593.755 373.952 593.728 373.739C593.701 373.526 593.745 373.311 593.852 373.125C593.959 372.94 594.124 372.795 594.322 372.712L597.452 371.408C598.351 371.115 599.165 370.608 599.824 369.93C600.229 369.299 600.492 368.589 600.595 367.847C600.698 367.105 600.638 366.349 600.42 365.632C600.035 363.67 599.364 361.782 598.905 359.845C598.349 357.936 598.259 355.921 598.644 353.97C592.788 353.318 586.862 353.714 581.144 355.138C579.423 355.495 577.795 356.206 576.363 357.224C574.413 358.789 573.879 361.124 574.114 363.67C574.122 363.773 574.094 363.876 574.035 363.96C573.975 364.045 573.889 364.106 573.789 364.134C573.689 364.162 573.583 364.155 573.489 364.113C573.394 364.071 573.317 363.998 573.27 363.906L571.32 360.18C571.027 359.649 570.543 359.25 569.965 359.065C569.388 358.881 568.761 358.924 568.215 359.186C566.463 360.064 564.908 361.29 563.644 362.788C562.946 363.582 562.413 364.507 562.079 365.51C561.744 366.512 561.613 367.572 561.694 368.626C561.935 371.522 562.422 374.393 563.148 377.208C563.195 377.368 563.191 377.539 563.134 377.696C563.078 377.854 562.972 377.989 562.833 378.082C562.695 378.175 562.53 378.221 562.363 378.213C562.196 378.206 562.036 378.145 561.906 378.04H561.819C561.282 377.624 560.607 377.429 559.931 377.494C558.167 377.705 557.72 379.493 557.596 381.021C557.507 383.387 557.703 385.756 558.18 388.075Z" fill="black"/>
<path opacity="0.2" d="M558.18 388.075C558.613 390.003 559.432 391.822 560.587 393.425C561.741 395.028 563.208 396.381 564.899 397.403C568.068 398.912 571.595 399.505 575.083 399.117C578.614 398.699 582.082 397.866 585.417 396.633C587.081 396.074 588.919 395.329 589.143 393.267C589.167 392.728 589.075 392.19 588.871 391.69C588.667 391.191 588.357 390.741 587.963 390.373C587.627 390.04 587.27 389.729 586.895 389.442C586.722 389.313 586.592 389.134 586.524 388.929C586.455 388.725 586.451 388.504 586.512 388.297C586.573 388.09 586.696 387.906 586.864 387.771C587.033 387.636 587.238 387.556 587.454 387.541C588.441 387.474 589.424 387.349 590.397 387.169C592.681 386.812 594.826 385.847 596.607 384.374C597.899 383.229 598.882 381.777 599.464 380.151C599.961 378.76 600.11 377.022 599.054 375.991C598.403 375.448 597.61 375.103 596.769 374.997C596.036 374.836 595.291 374.699 594.558 374.587C594.346 374.556 594.15 374.456 594 374.303C593.85 374.15 593.755 373.952 593.728 373.739C593.701 373.526 593.745 373.311 593.852 373.125C593.959 372.94 594.124 372.795 594.322 372.712L597.452 371.408C598.351 371.115 599.165 370.608 599.824 369.93C600.229 369.299 600.492 368.589 600.595 367.847C600.698 367.105 600.638 366.349 600.42 365.632C600.035 363.67 599.364 361.782 598.905 359.845C598.349 357.936 598.259 355.921 598.644 353.97C592.788 353.318 586.862 353.714 581.144 355.138C579.423 355.495 577.795 356.206 576.363 357.224C574.413 358.789 573.879 361.124 574.114 363.67C574.122 363.773 574.094 363.876 574.035 363.96C573.975 364.045 573.889 364.106 573.789 364.134C573.689 364.162 573.583 364.155 573.489 364.113C573.394 364.071 573.317 363.998 573.27 363.906L571.32 360.18C571.027 359.649 570.543 359.25 569.965 359.065C569.388 358.881 568.761 358.924 568.215 359.186C566.463 360.064 564.908 361.29 563.644 362.788C562.946 363.582 562.413 364.507 562.079 365.51C561.744 366.512 561.613 367.572 561.694 368.626C561.935 371.522 562.422 374.393 563.148 377.208C563.195 377.368 563.191 377.539 563.134 377.696C563.078 377.854 562.972 377.989 562.833 378.082C562.695 378.175 562.53 378.221 562.363 378.213C562.196 378.206 562.036 378.145 561.906 378.04H561.819C561.282 377.624 560.607 377.429 559.931 377.494C558.167 377.705 557.72 379.493 557.596 381.021C557.507 383.387 557.703 385.756 558.18 388.075Z" fill="white"/>
<path d="M567.457 396.931C568.555 392.228 570.132 387.65 572.165 383.269C572.166 383.201 572.181 383.134 572.209 383.072C572.237 383.011 572.276 382.955 572.326 382.909L572.661 382.201C572.087 376.748 570.504 371.45 567.991 366.576C567.931 366.465 567.916 366.335 567.948 366.213C567.98 366.09 568.058 365.985 568.165 365.918C568.277 365.856 568.41 365.84 568.533 365.875C568.656 365.91 568.761 365.992 568.824 366.104C571.178 370.644 572.732 375.556 573.419 380.623C577.406 372.625 583.765 363.235 593.577 356.454C593.682 356.382 593.812 356.355 593.938 356.378C594.063 356.401 594.174 356.473 594.247 356.578C594.283 356.63 594.307 356.687 594.32 356.748C594.333 356.809 594.334 356.872 594.322 356.933C594.311 356.994 594.287 357.053 594.253 357.105C594.219 357.157 594.175 357.202 594.123 357.236C584.001 364.291 577.617 374.053 573.742 382.151C578.964 379.792 584.76 379.006 590.422 379.891C590.548 379.918 590.658 379.992 590.73 380.099C590.801 380.205 590.829 380.335 590.807 380.462C590.788 380.556 590.741 380.642 590.672 380.708C590.604 380.775 590.516 380.819 590.422 380.834H590.236C590.149 380.834 580.995 379.158 573.071 383.579C571.054 387.915 569.489 392.448 568.401 397.105C568.379 397.197 568.332 397.281 568.263 397.347C568.195 397.413 568.109 397.458 568.016 397.477H567.83C567.709 397.453 567.602 397.382 567.532 397.28C567.462 397.178 567.436 397.053 567.457 396.931Z" fill="#F0F0F0"/>
<path d="M108.464 435.83L85.5365 436.501L62.6216 435.83C61.628 451.306 64.6585 467.079 68.8316 474.792C69.8164 476.776 71.4089 478.395 73.3773 479.412C80.1338 483.324 91.0634 483.324 97.7826 479.412C99.7772 478.382 101.372 476.717 102.316 474.68C106.452 466.918 109.445 451.231 108.464 435.83Z" fill="white"/>
<path d="M101.695 426.441C110.675 431.632 110.724 440.028 101.807 445.22C92.8892 450.411 78.3702 450.399 69.3905 445.22C60.4109 440.041 60.3612 431.632 69.2788 426.441C78.1963 421.249 92.7153 421.262 101.695 426.441Z" fill="#EBEBEB"/>
<path d="M98.1179 428.49C105.123 432.539 105.16 439.097 98.2049 443.146C91.2497 447.195 79.9226 447.182 72.9178 443.146C65.9129 439.109 65.8756 432.539 72.8308 428.49C79.786 424.441 91.1379 424.466 98.1179 428.49Z" fill="#E0E0E0"/>
<g opacity="0.15">
<path d="M98.1179 428.49C105.123 432.539 105.16 439.097 98.2049 443.146C91.2497 447.195 79.9226 447.182 72.9178 443.146C65.9129 439.109 65.8756 432.539 72.8308 428.49C79.786 424.441 91.1379 424.466 98.1179 428.49Z" fill="black"/>
</g>
<path d="M123.231 338.023C71.5764 354.939 71.0672 389.491 82.7544 414.095C85.6855 419.063 94.5783 421.758 102.304 391.156L88.7409 392.894L104.552 384.871L108.663 372.6L95.4725 373.581L112.215 366.539C115.294 356.815 118.973 347.291 123.231 338.023Z" fill="#8743FB"/>
<path opacity="0.2" d="M123.231 338.023C71.5764 354.939 71.0672 389.491 82.7544 414.095C85.6855 419.063 94.5783 421.758 102.304 391.156L88.7409 392.894L104.552 384.871L108.663 372.6L95.4725 373.581L112.215 366.539C115.294 356.815 118.973 347.291 123.231 338.023Z" fill="black"/>
<path opacity="0.2" d="M123.231 338.023C71.5764 354.939 71.0672 389.491 82.7544 414.095C85.6855 419.063 94.5783 421.758 102.304 391.156L88.7409 392.894L104.552 384.871L108.663 372.6L95.4725 373.581L112.215 366.539C115.294 356.815 118.973 347.291 123.231 338.023Z" fill="white"/>
<path d="M108.613 346.667C81.3758 367.334 78.9167 391.044 86.6171 415.784C83.8971 394 80.9535 371.967 108.613 346.667Z" fill="white"/>
<path d="M35.7448 373.122C86.6668 380.288 92.8768 412.394 86.0706 437.246C84.1703 442.376 76.3333 446.35 64.0499 419.125L77.004 418.554L60.858 413.661L54.9957 402.905L67.4157 401.663L50.6612 397.937C46.1993 389.369 41.2179 381.082 35.7448 373.122Z" fill="#8743FB"/>
<path opacity="0.2" d="M35.7448 373.122C86.6668 380.288 92.8768 412.394 86.0706 437.246C84.1703 442.376 76.3333 446.35 64.0499 419.125L77.004 418.554L60.858 413.661L54.9957 402.905L67.4157 401.663L50.6612 397.937C46.1993 389.369 41.2179 381.082 35.7448 373.122Z" fill="white"/>
<path opacity="0.1" d="M35.7448 373.122C86.6668 380.288 92.8768 412.394 86.0706 437.246C84.1703 442.376 76.3333 446.35 64.0499 419.125L77.004 418.554L60.858 413.661L54.9957 402.905L67.4157 401.663L50.6612 397.937C46.1993 389.369 41.2179 381.082 35.7448 373.122Z" fill="black"/>
<path d="M50.7854 378.81C79.5874 393.54 85.8098 415.201 82.7545 439.519C81.6739 418.716 80.73 397.713 50.7854 378.81Z" fill="white"/>
<path d="M138.123 385.157C91.436 385.914 82.2328 414.157 85.5862 437.321C86.7288 442.152 93.3487 446.611 107.47 423.447L95.8824 421.435L110.898 418.865L117.394 409.86L106.315 407.314L121.84 405.786C126.839 398.582 132.277 391.692 138.123 385.157Z" fill="#8743FB"/>
<path d="M123.939 388.535C96.3295 398.583 88.2938 417.424 88.3311 439.68C91.6224 421.113 94.8019 402.284 123.939 388.535Z" fill="white"/>
<path opacity="0.2" d="M138.123 385.157C91.436 385.914 82.2328 414.157 85.5862 437.321C86.7288 442.152 93.3487 446.611 107.47 423.447L95.8824 421.435L110.898 418.865L117.394 409.86L106.315 407.314L121.84 405.786C126.839 398.582 132.277 391.692 138.123 385.157Z" fill="white"/>
<path d="M407.376 338.495C395.118 347.015 381.294 352.902 371.072 364.316C351.958 385.629 351.511 419.933 366.527 444.313C381.542 468.693 409.475 483.337 437.917 486.69C467.725 490.217 499.061 481.97 522.472 463.092C545.884 444.214 560.775 414.84 560.763 384.846C560.751 354.852 545.362 324.882 520.199 308.463C497.235 293.559 464.247 289.225 441.208 306.352C429.571 315.046 421.796 327.801 410.158 336.495C409.314 337.166 408.37 337.824 407.376 338.495Z" fill="#8743FB"/>
<path opacity="0.2" d="M407.376 338.495C395.118 347.015 381.294 352.902 371.072 364.316C351.958 385.629 351.511 419.933 366.527 444.313C381.542 468.693 409.475 483.337 437.917 486.69C467.725 490.217 499.061 481.97 522.472 463.092C545.884 444.214 560.775 414.84 560.763 384.846C560.751 354.852 545.362 324.882 520.199 308.463C497.235 293.559 464.247 289.225 441.208 306.352C429.571 315.046 421.796 327.801 410.158 336.495C409.314 337.166 408.37 337.824 407.376 338.495Z" fill="black"/>
<path opacity="0.1" d="M407.376 338.495C395.118 347.015 381.294 352.902 371.072 364.316C351.958 385.629 351.511 419.933 366.527 444.313C381.542 468.693 409.475 483.337 437.917 486.69C467.725 490.217 499.061 481.97 522.472 463.092C545.884 444.214 560.775 414.84 560.763 384.846C560.751 354.852 545.362 324.882 520.199 308.463C497.235 293.559 464.247 289.225 441.208 306.352C429.571 315.046 421.796 327.801 410.158 336.495C409.314 337.166 408.37 337.824 407.376 338.495Z" fill="white"/>
<path opacity="0.1" d="M412.419 463.403C412.419 463.191 412.481 462.993 412.505 462.794C413.529 456.155 416.597 450 421.284 445.187C425.97 440.374 432.04 437.142 438.65 435.942C450.499 433.685 461.854 429.341 472.184 423.112C479.499 418.691 486.417 413.263 494.627 410.866C502.617 408.573 511.149 409.068 518.821 412.269C511.915 405.029 500.091 401.837 490.64 405.116C497.173 395.093 502.936 384.312 505.196 372.563C507.456 360.813 505.842 347.909 498.762 338.271C495.748 334.15 491.856 330.749 487.368 328.314C482.88 325.879 477.907 324.471 472.809 324.19C467.711 323.91 462.614 324.764 457.886 326.693C453.158 328.621 448.916 331.574 445.468 335.34C438.451 343.016 434.501 353.821 429.893 363.136C426.577 369.83 423.162 376.686 417.697 381.766C409.475 389.466 397.626 392.236 389.131 399.601C379.456 407.96 375.283 421.311 375.245 434.091C375.395 442.715 376.647 451.284 378.971 459.59C388.974 469.142 400.909 476.44 413.971 480.989C412.077 475.331 411.546 469.305 412.419 463.403Z" fill="black"/>
<path d="M544.803 380.71C544.415 359.968 536.686 340.035 522.99 324.452C509.294 308.869 490.519 298.645 469.998 295.596C467.15 295.879 464.324 296.352 461.54 297.012C483.122 298.157 503.47 307.435 518.487 322.978C533.505 338.521 542.078 359.176 542.481 380.785C543.04 408.742 529.353 437.246 505.891 457.019C487.51 472.519 463.092 482.803 436.24 486.491C436.811 486.578 437.395 486.653 437.966 486.715C440.376 487.001 442.798 487.199 445.232 487.336C469.079 482.703 490.677 472.879 507.332 458.77C531.377 438.538 545.362 409.363 544.803 380.71Z" fill="white"/>
<path d="M401.588 483.958L404.668 490.056C409.003 486.032 409.798 482.79 409.798 482.79C408.394 477.822 406.755 472.767 405.935 470.308C405.525 473.736 403.19 476.68 402.209 480.021C401.849 481.304 401.64 482.626 401.588 483.958Z" fill="#37474F"/>
<path d="M401.737 490.205L404.668 490.056L401.588 483.958C401.501 486.019 401.675 488.106 401.737 490.205Z" fill="#263238"/>
<path d="M403.973 463.117C402.911 461.579 401.691 460.155 400.334 458.869C401.077 461.533 401.056 464.352 400.272 467.004C399.365 470.532 397.713 473.848 396.881 477.4C395.875 481.722 396.111 486.367 394.273 490.416C393.364 492.381 392.01 494.107 390.317 495.456C388.625 496.806 386.641 497.742 384.523 498.191C382.962 498.626 381.292 498.425 379.878 497.632C379.284 497.21 378.848 496.603 378.636 495.906C377.715 497.831 376.595 499.654 375.295 501.346C373.854 503.209 372.054 505.27 372.451 507.556C372.685 508.51 373.197 509.373 373.923 510.037C374.648 510.7 375.553 511.133 376.525 511.282C378.47 511.555 380.452 511.39 382.325 510.797C386.442 509.908 390.372 508.307 393.938 506.065C397.532 503.77 400.158 500.234 401.315 496.129C401.738 494.151 401.888 492.125 401.762 490.106C401.762 488.019 401.526 485.92 401.613 483.896C401.661 482.564 401.865 481.242 402.222 479.958C403.215 476.618 405.55 473.674 405.948 470.246C405.948 470.06 406.01 469.886 406.022 469.7C406.05 467.344 405.333 465.04 403.973 463.117Z" fill="#455A64"/>
<path opacity="0.1" d="M403.973 463.117C402.911 461.579 401.691 460.155 400.334 458.869C401.077 461.533 401.056 464.352 400.272 467.004C399.365 470.532 397.713 473.848 396.881 477.4C395.875 481.722 396.111 486.367 394.273 490.416C393.364 492.381 392.01 494.107 390.317 495.456C388.625 496.806 386.641 497.742 384.523 498.191C382.962 498.626 381.292 498.425 379.878 497.632C379.284 497.21 378.848 496.603 378.636 495.906C377.715 497.831 376.595 499.654 375.295 501.346C373.854 503.209 372.054 505.27 372.451 507.556C372.685 508.51 373.197 509.373 373.923 510.037C374.648 510.7 375.553 511.133 376.525 511.282C378.47 511.555 380.452 511.39 382.325 510.797C386.442 509.908 390.372 508.307 393.938 506.065C397.532 503.77 400.158 500.234 401.315 496.129C401.738 494.151 401.888 492.125 401.762 490.106C401.762 488.019 401.526 485.92 401.613 483.896C401.661 482.564 401.865 481.242 402.222 479.958C403.215 476.618 405.55 473.674 405.948 470.246C405.948 470.06 406.01 469.886 406.022 469.7C406.05 467.344 405.333 465.04 403.973 463.117Z" fill="black"/>
<path d="M384.523 498.191C386.641 497.742 388.625 496.806 390.317 495.456C392.01 494.107 393.364 492.381 394.273 490.416C396.111 486.367 395.875 481.722 396.881 477.4C397.713 473.848 399.365 470.532 400.272 467.004C401.056 464.352 401.077 461.533 400.334 458.869C399.986 458.522 399.638 458.174 399.278 457.839C394.037 460.546 388.1 462.806 383.318 466.259C383.421 472.375 383.031 478.489 382.151 484.542C381.502 488.475 380.31 492.299 378.611 495.906C378.823 496.603 379.26 497.21 379.853 497.632C380.557 498.028 381.331 498.281 382.133 498.377C382.934 498.473 383.746 498.41 384.523 498.191Z" fill="#AB6160"/>
<path d="M366.725 482.07C365.868 487.125 361.993 497.421 361.993 497.421C361.993 497.421 380.139 498.154 380.549 497.322L385.877 489.075L366.725 482.07Z" fill="#C48281"/>
<path d="M421.038 361.745L374.774 387.504C370.577 389.842 367.22 393.438 365.177 397.786C363.134 402.133 362.507 407.013 363.384 411.735L372.364 460.173L364.999 483.585C371.358 492.105 385.952 492.54 385.952 492.54C394.099 476.208 400.073 469.277 404.693 455.59C409.314 441.904 412.406 432.464 412.406 432.464L450.908 421.957C459.702 419.566 467.578 414.593 473.518 407.681C479.458 400.769 483.189 392.236 484.231 383.182C484.889 377.369 484.914 373.407 484.914 373.407L421.038 361.745Z" fill="#455A64"/>
<path opacity="0.2" d="M417.933 376.984C417.94 382.151 419.774 387.149 423.112 391.093L393.938 409.314C389.139 412.313 385.585 416.944 383.927 422.355L372.364 460.173L382.797 418.057C383.997 413.213 387.046 409.031 391.292 406.407L417.97 389.988C414.89 382.288 417.933 376.984 417.933 376.984Z" fill="black"/>
<path d="M371.842 520.895L372.265 527.701C377.841 525.714 379.841 523.043 379.841 523.043C380.499 517.914 380.983 512.623 381.207 510.04C379.468 513.033 376.165 514.821 373.941 517.492C373.101 518.533 372.396 519.677 371.842 520.895Z" fill="#37474F"/>
<path d="M369.52 526.682L372.265 527.701L371.842 520.895C370.948 522.745 370.277 524.745 369.52 526.682Z" fill="#263238"/>
<path d="M382.213 502.65C381.842 500.822 381.284 499.036 380.549 497.322C380.182 500.061 379.055 502.643 377.295 504.774C375.072 507.655 372.24 510.052 370.091 512.983C367.458 516.573 365.843 520.932 362.577 523.925C360.967 525.376 359.041 526.432 356.952 527.01C354.864 527.588 352.669 527.671 350.542 527.254C348.94 527.034 347.489 526.19 346.506 524.906C346.113 524.285 345.939 523.551 346.009 522.82C344.407 524.238 342.663 525.486 340.805 526.546C338.743 527.701 336.271 528.881 335.725 531.179C335.578 532.139 335.716 533.122 336.123 534.005C336.529 534.888 337.185 535.633 338.01 536.147C339.688 537.163 341.572 537.791 343.525 537.985C347.662 538.787 351.907 538.858 356.069 538.196C360.264 537.507 364.058 535.296 366.725 531.986C367.897 530.333 368.837 528.528 369.52 526.62C370.277 524.683 370.948 522.683 371.842 520.833C372.397 519.619 373.102 518.48 373.941 517.442C376.165 514.759 379.468 512.971 381.207 509.99C381.294 509.841 381.406 509.692 381.493 509.518C382.452 507.362 382.704 504.958 382.213 502.65Z" fill="#455A64"/>
<path d="M350.542 527.266C352.669 527.684 354.864 527.6 356.952 527.023C359.041 526.445 360.967 525.389 362.577 523.938C365.844 520.944 367.458 516.585 370.091 512.996C372.24 510.065 375.059 507.667 377.295 504.786C379.055 502.655 380.182 500.073 380.549 497.334L379.99 495.968C374.103 496.403 367.744 496.117 361.993 497.433C359.689 503.097 356.926 508.563 353.734 513.778C351.597 517.148 348.996 520.2 346.009 522.845C345.939 523.576 346.113 524.31 346.506 524.931C347.491 526.211 348.942 527.05 350.542 527.266Z" fill="#C48281"/>
<path d="M468.532 293.348C476.072 275.821 476.517 256.052 469.774 238.203C467.613 232.564 464.558 227.025 459.552 223.585C453.144 219.263 444.86 219.325 437.134 219.548C433.036 219.673 428.85 219.797 425 221.213C423.081 221.864 421.35 222.972 419.955 224.441C418.559 225.91 417.541 227.696 416.989 229.646C411.934 228.714 406.842 232.701 405.476 237.657C404.11 242.612 405.898 248.003 409.04 252.076C412.183 256.15 416.492 259.069 420.914 261.739C418.256 263.13 416.294 266.334 415.374 269.191C414.455 272.06 414.673 275.172 415.983 277.885C413.603 277.909 411.287 278.663 409.348 280.044C407.409 281.425 405.941 283.368 405.14 285.61C404.495 287.855 404.396 290.221 404.852 292.511C405.308 294.802 406.305 296.95 407.761 298.776C410.727 302.418 414.814 304.977 419.386 306.054C423.935 307.116 428.635 307.368 433.272 306.799C438.066 311.444 446.847 311.345 452.87 308.463C458.894 305.582 465.862 299.459 468.532 293.348Z" fill="#263238"/>
<path d="M425.621 281.686H424.441C416.554 281.773 406.569 287.15 401.688 300.912L382.735 337.625L404.37 347.214L416.207 312.562L425.621 281.686Z" fill="#C48281"/>
<path d="M410.419 306.054C408.916 310.388 408.817 315.058 408.581 319.716C408.345 324.373 407.811 329.826 405.712 333.912C403.399 332.31 400.629 331.499 397.817 331.602C395.005 331.705 392.302 332.716 390.112 334.483C388.538 335.812 387.332 337.522 386.61 339.451L404.37 347.325L416.207 312.673L422.032 293.572C419.368 294.782 416.97 296.509 414.977 298.651C412.983 300.793 411.434 303.309 410.419 306.054Z" fill="#AB6160"/>
<path d="M404.569 340.606C403.75 338.561 402.42 336.76 400.707 335.375C398.993 333.99 396.953 333.067 394.782 332.695C390.448 331.987 385.542 334.259 382.735 337.663C380.375 340.507 380.748 344.369 382.238 347.76C383.483 350.391 385.602 352.51 388.233 353.755C390.864 355 393.846 355.296 396.67 354.591C402.259 353.014 406.68 346.009 404.569 340.606Z" fill="#C48281"/>
<path d="M427.608 281.015C419.262 282.344 414.083 303.458 411.375 311.481C408.568 319.765 412.381 325.777 416.629 330.782C417.397 331.691 417.967 332.751 418.302 333.893C418.638 335.034 418.732 336.234 418.579 337.414L409.86 370.041C433.831 387.839 474.022 379.22 484.926 373.407C485.053 362.009 482.648 350.726 477.884 340.37C474.674 333.682 472.865 326.408 472.569 318.995L472.159 307.022L475.053 286.355L454.237 281.387L435.892 280.568C433.125 280.56 430.359 280.709 427.608 281.015Z" fill="#8743FB"/>
<path opacity="0.4" d="M427.608 281.015C419.262 282.344 414.083 303.458 411.375 311.481C408.568 319.765 412.381 325.777 416.629 330.782C417.397 331.691 417.967 332.751 418.302 333.893C418.638 335.034 418.732 336.234 418.579 337.414L409.86 370.041C433.831 387.839 474.022 379.22 484.926 373.407C485.053 362.009 482.648 350.726 477.884 340.37C474.674 333.682 472.865 326.408 472.569 318.995L472.159 307.022L475.053 286.355L454.237 281.387L435.892 280.568C433.125 280.56 430.359 280.709 427.608 281.015Z" fill="black"/>
<path d="M427.422 375.283C427.422 375.283 427.422 375.283 427.422 375.208C427.422 375.134 427.422 375.134 427.422 375.059V374.985V374.923V374.848L413.263 348.48V348.406V348.331V348.257L413.201 348.17V348.083C413.139 347.996 413.139 347.996 413.077 347.909L413.002 347.835L412.94 347.748V347.686V347.623V347.561L412.729 347.375H412.655H412.592H412.518H412.431L412.344 347.313H412.245L393.714 336.259H393.615H393.528H393.428H393.341H393.254H393.168H393.093H393.006H392.907H392.82H392.72H392.472C392.38 336.261 392.292 336.297 392.224 336.358L390.286 338.582H390.348C390.187 338.706 390.174 338.967 390.41 339.401L404.569 365.769C405.362 366.99 406.435 368.003 407.699 368.725L423.982 377.891C424.814 378.363 425.323 378.375 425.397 378.028C425.397 378.028 425.397 378.152 425.397 378.177L427.347 375.953C427.354 375.921 427.354 375.887 427.347 375.854C427.353 375.825 427.353 375.796 427.347 375.767L427.422 375.283ZM390.708 338.122C390.708 338.122 390.708 338.122 390.82 338.122H390.882H390.708ZM409.338 348.642C409.487 348.766 409.649 348.89 409.785 349.027C409.686 348.89 409.525 348.766 409.376 348.642H409.338ZM425.472 377.568C425.449 377.38 425.39 377.199 425.298 377.034C425.383 377.185 425.442 377.348 425.472 377.518C425.472 377.518 425.46 377.494 425.472 377.568Z" fill="#455A64"/>
<path opacity="0.15" d="M427.422 375.283C427.422 375.283 427.422 375.283 427.422 375.208C427.422 375.134 427.422 375.134 427.422 375.059V374.985V374.923V374.848L413.263 348.48L411.102 350.617L425.273 376.984C425.358 377.135 425.417 377.299 425.447 377.469C425.462 377.52 425.464 377.573 425.453 377.625C425.443 377.677 425.419 377.726 425.385 377.767L427.335 375.544C427.342 375.511 427.342 375.477 427.335 375.444C427.341 375.416 427.341 375.386 427.335 375.357L427.422 375.283Z" fill="white"/>
<path opacity="0.2" d="M413.027 348.319V348.244V348.17L412.965 348.083V347.996C412.903 347.909 412.903 347.909 412.841 347.822L412.766 347.748L412.704 347.661V347.599V347.536V347.474L412.493 347.288H412.419H412.356H412.282H412.195L412.108 347.226H412.009L393.714 336.259H393.615H393.528H393.428H393.341H393.254H393.168H393.093H393.006H392.907H392.82H392.72H392.472C392.38 336.261 392.292 336.297 392.224 336.358L390.286 338.582C390.377 338.482 390.539 338.457 390.77 338.507C391.085 338.589 391.386 338.714 391.665 338.88L407.947 348.046C408.274 348.222 408.586 348.426 408.879 348.654C409.191 348.894 409.49 349.151 409.773 349.424C410.049 349.679 410.306 349.953 410.543 350.244C410.746 350.483 410.925 350.741 411.077 351.014L413.027 348.791V348.319Z" fill="white"/>
<path d="M483.039 293.261C480.729 289.299 477.698 286.256 473.103 285.908C473.103 285.908 465.651 289.783 465.651 307.37L466.147 351.374C465.067 351.809 463.986 352.268 462.918 352.716C453.834 356.622 444.34 359.493 434.613 361.273C429.541 357.245 423.229 355.103 416.753 355.212L419.15 359.683C414.604 362.602 404.321 357.348 404.321 357.348C403.563 363.757 407.724 370.414 413.238 373.78C418.753 377.146 471.339 372.203 482.492 364.987C489.832 360.242 488.094 314.872 488.094 314.872C488.599 307.325 486.839 299.8 483.039 293.261Z" fill="#C48281"/>
<path d="M393.205 344.034C392.854 345.765 392.654 347.522 392.609 349.288C393.016 353.493 394.797 357.448 397.676 360.54C398.273 361.219 399.022 361.747 399.862 362.08C400.274 362.241 400.721 362.289 401.158 362.219C401.595 362.149 402.005 361.964 402.346 361.683C402.963 360.944 403.278 359.999 403.228 359.037C403.368 357.614 403.288 356.177 402.992 354.777C402.701 353.362 401.901 352.102 400.744 351.238C399.85 350.709 398.895 350.292 397.9 349.996C396.944 349.577 396.095 348.949 395.416 348.157L393.205 344.034Z" fill="#C48281"/>
<path d="M435.83 272.408V289.026C434.203 290.566 432.638 292.33 432.489 294.528C432.461 295.58 432.723 296.62 433.247 297.534C433.77 298.447 434.535 299.199 435.458 299.707C437.337 300.701 439.532 300.916 441.568 300.303C443.583 299.682 445.43 298.612 446.971 297.173C449.157 295.153 450.92 292.718 452.157 290.01C453.393 287.302 454.079 284.375 454.175 281.4V264.546L435.83 272.408Z" fill="#C48281"/>
<path d="M453.467 264.546C451.728 273.687 448.163 281.611 435.83 284.418V272.346L453.467 264.546Z" fill="#AB6160"/>
<path d="M449.157 254.933C448.977 256.397 448.977 257.878 449.157 259.342C449.359 260.447 449.912 261.458 450.734 262.223C451.134 262.587 451.618 262.846 452.142 262.978C452.667 263.11 453.215 263.111 453.74 262.981C453.392 261.541 453.614 260.021 454.359 258.74C455.104 257.46 456.314 256.516 457.738 256.106C459.162 255.695 460.69 255.851 462.002 256.54C463.314 257.228 464.31 258.397 464.781 259.802C465.074 260.814 465.14 261.879 464.975 262.92C464.809 263.961 464.417 264.953 463.825 265.825C462.626 267.564 461.04 269.001 459.192 270.023C458.128 270.428 456.955 270.445 455.879 270.073C454.803 269.701 453.892 268.962 453.305 267.986C448.002 275.302 438.476 281.015 429.322 280.617C426.816 280.587 424.372 279.837 422.28 278.456C418.728 275.972 418.306 271.911 417.709 267.937C416.851 262.924 416.68 257.818 417.2 252.759C418.032 245.779 420.839 238.824 426.043 234.129C429.732 249.058 443.816 254.039 449.157 254.933Z" fill="#C48281"/>
<path d="M430.08 253.989L424.143 261.95L430.043 263.714L430.08 253.989Z" fill="#AB6160"/>
<path d="M435.532 267.254L430.726 268.992C431.066 269.55 431.578 269.982 432.185 270.224C432.792 270.466 433.461 270.505 434.091 270.334C434.647 270.062 435.094 269.608 435.356 269.048C435.618 268.488 435.68 267.854 435.532 267.254Z" fill="#AB6160"/>
<path opacity="0.3" d="M435.532 267.254L430.726 268.992C431.066 269.55 431.578 269.982 432.185 270.224C432.792 270.466 433.461 270.505 434.091 270.334C434.647 270.062 435.094 269.608 435.356 269.048C435.618 268.488 435.68 267.854 435.532 267.254Z" fill="black"/>
<path d="M432.489 270.321C433.012 270.476 433.569 270.476 434.091 270.321C434.529 270.125 434.901 269.805 435.161 269.402C435.421 268.998 435.558 268.528 435.557 268.048C434.854 267.961 434.143 268.147 433.573 268.567C433.002 268.988 432.614 269.611 432.489 270.309V270.321Z" fill="#AB6160"/>
<path d="M438.749 255.243C438.749 255.588 438.647 255.925 438.455 256.211C438.263 256.497 437.991 256.72 437.673 256.851C437.354 256.982 437.004 257.016 436.666 256.948C436.329 256.88 436.019 256.713 435.776 256.468C435.534 256.224 435.369 255.913 435.303 255.575C435.238 255.237 435.274 254.887 435.407 254.569C435.541 254.252 435.766 253.981 436.053 253.792C436.341 253.602 436.678 253.502 437.023 253.505C437.25 253.505 437.476 253.55 437.686 253.637C437.896 253.725 438.087 253.853 438.248 254.015C438.408 254.176 438.535 254.368 438.621 254.579C438.707 254.79 438.751 255.016 438.749 255.243Z" fill="#263238"/>
<path d="M424.18 254.61C424.174 255.07 423.986 255.509 423.659 255.832C423.331 256.155 422.889 256.336 422.429 256.336C421.968 256.336 421.526 256.153 421.2 255.827C420.873 255.501 420.69 255.059 420.69 254.598C420.69 254.136 420.873 253.694 421.2 253.368C421.526 253.042 421.968 252.859 422.429 252.859C422.659 252.859 422.887 252.904 423.099 252.992C423.312 253.08 423.505 253.209 423.667 253.372C423.83 253.534 423.959 253.727 424.047 253.94C424.135 254.152 424.18 254.38 424.18 254.61Z" fill="#263238"/>
<path d="M422.516 247.704L418.653 250.35C418.49 249.872 418.476 249.356 418.614 248.87C418.751 248.384 419.034 247.951 419.423 247.63C419.895 247.353 420.434 247.213 420.98 247.226C421.527 247.239 422.059 247.405 422.516 247.704Z" fill="#263238"/>
<path d="M437.383 247.555L441.22 250.238C441.391 249.762 441.412 249.246 441.281 248.757C441.15 248.269 440.873 247.833 440.488 247.506C440.017 247.224 439.477 247.079 438.928 247.088C438.379 247.097 437.844 247.259 437.383 247.555Z" fill="#263238"/>
</svg>
